<svg width="663" height="549" viewBox="0 0 663 549" fill="none" xmlns="http://www.w3.org/2000/svg">
<path fill-rule="evenodd" clip-rule="evenodd" d="M305.659 469.54C254.944 455.107 214.185 430.006 178.163 405.167C143.6 381.335 124.735 356.634 105.049 331.213C79.222 297.864 17.1986 255.389 45.7037 234.129C74.3845 212.737 165.317 241.62 224.808 241.891C275.887 242.123 312.556 223.167 368.344 235.598C425.455 248.323 467.552 279.874 512.497 305.995C562.004 334.767 640.959 364.985 642.515 394.937C644.129 425.978 556.353 420.059 519.331 437.501C491.56 450.584 492.898 477.883 454.102 483.7C412.666 489.913 357.292 484.235 305.659 469.54Z" fill="#6799CE" fill-opacity="0.2"/>
<g clip-path="url(#clip0_17_2)">
<path d="M368.907 172.773C332.92 174.52 294.971 175.202 255.215 174.43C220.317 173.748 186.808 172.007 154.884 169.464C157.25 152.674 158.179 135.713 157.661 118.765C157.035 98.0549 154.239 77.4671 149.319 57.3394C180.292 49.1968 212.975 41.4909 247.298 34.485C292.721 25.2175 335.553 18.5466 376.453 13.2937C377.847 39.9174 378.601 69.7359 376.518 102.767C374.915 128.182 372.186 151.605 368.907 172.773Z" fill="url(#paint0_linear_17_2)"/>
<path d="M169.018 61.4258C164.762 61.2756 160.503 61.6778 156.35 62.6224C158.02 67.4984 158.786 72.6317 159.492 77.7351C163.321 105.256 165.805 133.238 161.7 160.693L167.959 160.418C174.485 136.497 174.711 111.295 168.617 87.2598C167.193 81.6778 165.422 76.1257 165.075 70.3762C164.958 67.5254 165.018 64.6701 165.254 61.8267L169.018 61.4258Z" fill="url(#paint1_linear_17_2)"/>
<path d="M357.658 161.393C326.231 163.918 291.949 165.342 255.185 164.929C222.872 164.558 192.57 162.817 164.5 160.215C166.258 146.128 166.909 131.925 166.445 117.736C165.836 99.2592 163.342 80.8923 159.001 62.9216C186.473 55.5986 215.644 48.6944 246.443 42.526C289.167 33.9646 329.671 27.88 367.471 23.6322C368.284 50.6036 367.5 77.5995 365.125 104.478C363.33 124.778 360.715 143.792 357.658 161.393Z" fill="url(#paint2_linear_17_2)"/>
<path d="M139.255 310.57C139.282 310.813 139.389 311.04 139.56 311.216C139.804 311.395 140.091 311.507 140.392 311.539C141.797 311.807 143.222 311.953 144.652 311.976C145.144 311.956 145.637 312 146.118 312.107C146.534 312.251 146.935 312.436 147.315 312.658C149.888 313.974 153.173 313.777 156.201 313.531C156.889 313.471 157.667 313.376 158.05 312.933C158.208 312.703 158.274 312.423 158.235 312.147C158.196 311.872 158.055 311.62 157.84 311.443C157.367 311.036 156.818 310.727 156.225 310.534C153.945 309.612 151.551 308.685 149.972 307.076C149.389 306.338 148.716 305.676 147.967 305.107C146.896 304.449 145.574 304.383 144.275 304.383C143.515 304.383 141.175 304.15 140.559 304.437C138.758 305.263 138.985 309.176 139.255 310.57Z" fill="#474747"/>
<path d="M101.329 301.883C97.5595 301.566 95.9917 304.988 93.6341 307.267C91.8749 308.978 89.4454 309.983 87.9136 311.892C90.8516 312.49 93.9811 313.088 96.7876 312.047C97.4118 311.764 98.0533 311.52 98.7084 311.318C99.0853 311.228 99.4743 311.186 99.8572 311.12C99.8572 311.21 99.8931 311.306 99.9171 311.395C99.9184 311.451 99.934 311.505 99.9624 311.553C99.9908 311.6 100.031 311.64 100.079 311.668C100.127 311.695 100.182 311.71 100.237 311.71C100.292 311.711 100.347 311.697 100.396 311.671C101.629 311.443 102.834 311.078 103.986 310.582C104.252 310.487 104.496 310.341 104.704 310.151C105.035 309.703 105.193 309.15 105.147 308.595C105.273 305.323 105.261 302.212 101.329 301.883Z" fill="#474747"/>
<g style="mix-blend-mode:multiply">
<path d="M157.816 311.425C157.343 311.019 156.794 310.709 156.201 310.516C153.921 309.595 151.527 308.667 149.948 307.058C149.365 306.32 148.692 305.659 147.943 305.089C146.872 304.431 145.55 304.366 144.251 304.366C143.491 304.366 141.151 304.132 140.535 304.419C140.221 304.611 139.951 304.867 139.745 305.172C139.538 305.476 139.4 305.822 139.338 306.184C139.786 306.337 140.244 306.457 140.709 306.543C142.472 306.987 144.311 307.032 146.094 306.675C146.251 306.613 146.424 306.604 146.587 306.651C146.749 306.698 146.891 306.796 146.992 306.932C148.332 308.075 149.855 308.983 151.497 309.618L155.973 311.659C156.461 311.839 156.904 312.122 157.272 312.49C157.45 312.7 157.566 312.954 157.607 313.226C157.768 313.154 157.911 313.048 158.026 312.915C158.184 312.686 158.25 312.405 158.211 312.129C158.172 311.854 158.031 311.602 157.816 311.425Z" fill="#DCE5F0"/>
</g>
<g style="mix-blend-mode:multiply">
<path d="M101.329 301.883C97.5596 301.566 95.9919 304.988 93.6342 307.267C92.5039 308.252 91.304 309.154 90.044 309.965C89.9996 310.766 90.0498 311.57 90.1936 312.359C92.2412 312.8 94.3649 312.745 96.3868 312.197C95.9725 311.952 95.647 311.582 95.4576 311.14C95.2682 310.698 95.2248 310.207 95.3336 309.738C95.579 308.781 96.4167 308.183 97.1288 307.608C98.5709 306.477 100.181 303.295 102.466 304.617C102.876 304.725 103.234 304.975 103.478 305.323C103.86 305.98 104.043 306.735 104.004 307.495C104.028 308.179 103.986 308.864 103.879 309.541C103.785 309.972 103.649 310.393 103.472 310.797C103.633 310.731 103.801 310.671 103.956 310.6C104.222 310.505 104.466 310.359 104.674 310.169C105.006 309.721 105.163 309.168 105.117 308.613C105.273 305.323 105.261 302.212 101.329 301.883Z" fill="#DCE5F0"/>
</g>
<path d="M147.315 304.575C146.51 305.038 145.638 305.371 144.73 305.562C142.875 305.921 140.954 305.697 139.231 304.922C134.617 292.023 130.129 277.82 126.102 262.384C121.967 246.553 118.892 231.614 116.594 217.806C114.671 234.374 112.547 251.19 110.221 268.253C108.594 280.151 106.898 291.907 105.135 303.522C103.326 303.614 101.514 303.594 99.7077 303.462C98.3016 303.354 96.9971 303.187 95.7943 302.983C95.196 281.984 95.2319 259.811 96.0277 236.574C96.6799 217.465 97.8228 199.121 99.3128 181.603C106.633 181.387 113.905 180.335 120.986 178.468C123.745 177.744 128.837 175.124 133.367 177.314C134.546 177.89 135.593 178.705 136.442 179.707C138.309 198.501 140.086 217.476 141.774 236.634C143.808 259.52 145.655 282.167 147.315 304.575Z" fill="#3B589C"/>
<path d="M69.2627 185.909L69.2727 180.668C69.2739 180.033 69.5273 179.425 69.977 178.977C70.4267 178.529 71.036 178.278 71.6708 178.279L86.9115 178.309C87.5463 178.31 88.1547 178.563 88.6027 179.013C89.0507 179.462 89.3017 180.072 89.3005 180.706L89.2904 185.947C89.2892 186.582 89.0358 187.19 88.5861 187.638C88.1364 188.086 87.5271 188.337 86.8923 188.336L71.6695 188.307C71.0347 188.305 70.4264 188.052 69.9784 187.602C69.5304 187.153 69.2794 186.544 69.2806 185.909L69.2627 185.909Z" fill="#E73B3B"/>
<g style="mix-blend-mode:multiply">
<path d="M86.9324 178.331H82.0017C82.3108 178.371 82.614 178.447 82.9053 178.558C83.5875 178.83 84.1671 179.309 84.5628 179.928C85.6219 181.723 84.3773 184.32 85.5381 186.073C85.9273 186.594 86.4708 186.98 87.0916 187.175C87.7124 187.371 88.3789 187.366 88.9968 187.161C89.1978 186.812 89.305 186.416 89.3079 186.013V180.772C89.3128 180.134 89.0661 179.521 88.6214 179.064C88.1768 178.607 87.5699 178.343 86.9324 178.331Z" fill="#DCE5F0"/>
</g>
<path d="M90.9055 190.727L65.9351 190.673V184.254C69.7587 183.895 73.9713 183.656 78.501 183.656C83.0308 183.656 87.1058 183.907 90.8756 184.254L90.9055 190.727Z" fill="#659CEC"/>
<g style="mix-blend-mode:multiply">
<path d="M90.9176 184.302C89.5174 184.164 88.0573 184.044 86.5554 183.949C86.4357 184.948 86.4297 187.149 86.322 187.149L90.6304 187.484C90.6827 187.502 90.7395 187.502 90.7919 187.484C90.82 187.462 90.843 187.434 90.8594 187.402C90.8759 187.37 90.8855 187.335 90.8877 187.299C90.8877 187.263 90.8877 187.221 90.8877 187.185L90.9176 184.302Z" fill="#DCE5F0"/>
</g>
<path d="M57.8689 180.879C57.861 181.345 57.9518 181.807 58.1354 182.235C58.319 182.663 58.5911 183.047 58.934 183.362C59.4881 183.845 60.1924 184.119 60.9266 184.14C68.1486 179.391 75.0107 174.115 81.457 168.357C87.7437 162.739 93.6171 156.674 99.0315 150.211C99.3845 156.093 99.5461 162.392 99.4085 169.069C99.3127 173.568 99.1133 177.876 98.8101 181.992C100.44 182.308 102.098 182.454 103.759 182.429C103.37 183.225 102.981 184.026 102.562 184.822C103.283 185.451 104.138 185.907 105.062 186.155C105.986 186.402 106.955 186.436 107.893 186.252L110.508 183.093C114.41 182.938 118.628 182.615 123.116 182.046C127.951 181.448 132.415 180.622 136.472 179.725C136.472 172.342 136.233 164.367 135.533 155.877C134.755 146.37 133.54 137.576 132.11 129.553C121.1 126.158 109.348 125.984 98.2416 129.05C92.5989 137.318 86.3997 145.892 79.5961 154.663C72.254 164.139 64.9717 172.862 57.8689 180.879Z" fill="#618BFF"/>
<path d="M119.4 99.9136C119.46 99.5575 119.395 99.1917 119.215 98.8785C119.016 98.6655 118.757 98.5175 118.473 98.4538C116.527 97.8321 114.49 97.5389 112.447 97.5862C112.186 97.5646 111.925 97.6367 111.711 97.7897C111.577 97.9383 111.484 98.12 111.442 98.3162C109.914 103.437 108.386 108.559 106.858 113.68C109.173 114.736 111.576 115.587 114.039 116.223L111.759 124.599C111.452 125.524 111.31 126.496 111.34 127.471C111.473 128.511 111.989 129.465 112.786 130.148C113.583 130.83 114.606 131.191 115.655 131.162C116.675 131.088 117.626 130.622 118.309 129.861C118.992 129.1 119.353 128.104 119.317 127.082C119.191 124.222 118.946 121.35 118.916 118.466C118.856 112.3 119.017 106.116 119.4 99.9136Z" fill="#FFC895"/>
<g style="mix-blend-mode:multiply">
<path d="M110.245 268.253C110.778 264.352 111.819 256.634 113.081 246.769C114.518 235.551 115.69 225.763 116.618 217.806C116.283 216.505 115.952 215.191 115.625 213.863C115.114 211.781 114.635 209.725 114.188 207.695C112.194 224.925 110.052 242.369 107.762 260.027C106.05 273.069 104.279 285.98 102.448 298.76L100.019 298.401C99.584 292.633 99.2329 286.724 98.9657 280.673C98.4151 267.894 98.3673 255.659 98.6605 244.034L96.9012 244.489C96.4854 245.001 96.1074 245.543 95.7703 246.11C95.2677 265.89 95.3275 284.873 95.8182 302.983C97.0149 303.187 98.3254 303.354 99.7316 303.462C101.538 303.594 103.35 303.614 105.159 303.522C106.934 291.911 108.63 280.155 110.245 268.253Z" fill="#DCE5F0"/>
</g>
<path d="M73.5764 319.658C76.7173 320.746 80.0416 321.205 83.3599 321.01C87.3771 320.754 91.2965 319.662 94.8668 317.803C94.0515 301.01 94.3814 284.181 95.8541 267.433C97.2502 251.6 99.6263 235.869 102.969 220.33L47.0203 222.089C49.0024 237.928 52.0248 253.619 56.0678 269.061C60.5962 286.351 66.4497 303.266 73.5764 319.658Z" fill="#9CBFFD"/>
<g style="mix-blend-mode:multiply">
<path d="M102.987 220.324L47.0203 222.089C47.2237 223.685 47.4391 225.3 47.6665 226.935C50.1677 227.372 53.0519 227.246 55.3378 227.42C63.8893 228.056 72.4705 228.196 81.0382 227.839C85.8811 227.635 90.71 227.274 95.525 226.756C89.9648 257.184 88.8662 288.26 92.2638 319.006C93.305 318.587 94.1906 318.168 94.8907 317.809C94.0704 301.015 94.3923 284.184 95.8541 267.433C97.2559 251.598 99.638 235.865 102.987 220.324Z" fill="#DCE5F0"/>
</g>
<path d="M104.83 220.294C96.5842 221.521 87.5426 222.49 77.795 222.987C66.5755 223.56 55.3317 223.46 44.1242 222.688C40.684 210.499 41.4342 197.509 46.2544 185.797C55.5293 185.55 65.1512 185.5 75.1203 185.648C85.8911 185.819 96.2371 186.218 106.158 186.844C106.498 192.87 106.524 198.909 106.236 204.937C105.979 210.447 105.476 215.58 104.83 220.294Z" fill="#BFDBFF"/>
<path d="M94.5378 212.235C86.9446 213.135 79.3019 213.553 71.6558 213.486C64.2849 213.42 56.925 212.902 49.6174 211.936C48.6455 206.341 48.9358 200.599 50.4671 195.13C58.1024 194.586 66.3122 194.281 75.0366 194.347C82.5164 194.401 89.6012 194.724 96.2612 195.226C95.4932 198.563 94.9771 201.953 94.7173 205.367C94.5318 207.826 94.49 210.124 94.5378 212.235Z" fill="#FF73B9"/>
<g style="mix-blend-mode:multiply">
<path d="M46.2545 185.797C45.1693 188.447 44.2852 191.175 43.6096 193.958C46.3023 193.683 47.7624 191.732 49.4737 189.89C50.3953 188.902 51.7296 188.095 53.064 188.424C52.8845 188.843 52.1844 189.148 52.4656 189.531C52.5206 189.605 52.5952 189.663 52.6811 189.698C53.9197 190.332 55.4336 189.925 56.6902 189.315C57.9468 188.705 59.1436 187.897 60.5198 187.718C60.7782 187.713 61.0305 187.639 61.2499 187.502C61.3992 187.353 61.5066 187.168 61.561 186.964L62.0637 185.57C56.6663 185.586 51.3965 185.662 46.2545 185.797Z" fill="#DCE5F0"/>
</g>
<g style="mix-blend-mode:multiply">
<path d="M106.236 204.949C106.523 198.876 106.475 193.216 106.236 188.023C105.291 187.903 104.327 187.766 103.352 187.61C101.03 187.245 98.8101 186.814 96.7038 186.336L92.7186 186.162C92.8383 186.683 92.952 187.203 93.0716 187.718C93.1447 188.227 93.4024 188.691 93.7957 189.022C94.2381 189.309 94.762 189.444 95.2879 189.406C95.8137 189.368 96.313 189.16 96.7098 188.813C96.7098 190.111 96.6739 191.206 96.632 191.942C96.5602 193.306 96.4704 193.958 96.8295 194.191C97.2842 194.473 98.1339 193.904 98.5229 193.593C98.6108 194.172 98.8626 194.713 99.2486 195.153C99.6346 195.593 100.139 195.913 100.701 196.076C101.213 196.179 101.743 196.129 102.227 195.932L102.065 199.331C101.754 205.888 101.497 212.399 101.293 218.865C97.759 219.993 94.1986 221.042 90.6123 222.012C95.5848 221.527 100.342 220.941 104.848 220.271C105.476 215.58 105.979 210.447 106.236 204.949Z" fill="#DCE5F0"/>
</g>
<path d="M79.8593 179.061C78.1779 178.881 76.7537 178.803 75.6707 178.767C73.0198 178.678 71.1828 178.803 70.5186 179.617C70.2153 180.078 69.9739 180.577 69.8005 181.101C69.7228 181.322 69.6988 181.436 69.7527 181.55C69.9442 181.962 71.0392 182.052 71.6077 181.55C71.845 181.322 71.9971 181.02 72.0385 180.694C72.224 179.994 73.7558 179.216 79.8593 179.061Z" fill="#FFDFDF"/>
<path d="M99.5941 184.87C99.1815 184.915 98.778 185.022 98.3974 185.187C97.9881 185.45 97.5982 185.742 97.2305 186.061C95.9859 186.94 94.3224 186.826 92.8025 186.659C92.7186 186.839 92.6983 187.043 92.7451 187.236C92.7918 187.43 92.9028 187.602 93.0598 187.724C93.3814 187.962 93.7623 188.107 94.1608 188.143C95.0534 188.277 95.961 188.277 96.8535 188.143L95.956 193.569C96.6381 194.006 97.434 193.228 97.8648 192.54L99.6959 189.626C99.7085 191.229 99.5904 192.829 99.3428 194.413C100.101 194.874 100.953 195.157 101.837 195.24C102.72 195.323 103.611 195.204 104.441 194.891C104.805 194.772 105.136 194.567 105.404 194.293C105.664 193.963 105.852 193.582 105.955 193.174L107.481 188.591C107.765 187.971 107.828 187.272 107.66 186.611C107.459 186.181 107.137 185.819 106.733 185.57C104.357 183.847 102.257 184.421 99.5941 184.87Z" fill="#FFC895"/>
<path d="M48.3727 180.897C48.2518 180.845 48.1215 180.818 47.9898 180.818C47.8581 180.818 47.7278 180.845 47.6068 180.897C47.4691 180.984 47.3525 181.101 47.2657 181.238C44.8689 184.517 43.1833 188.261 42.3171 192.229C43.0816 192.515 43.9113 192.579 44.7107 192.414C45.307 192.28 45.8705 192.028 46.3682 191.672C47.1102 191.152 47.3794 190.643 48.0975 189.662C48.4924 189.124 49.0908 188.346 49.8926 187.437L54.6378 187.006C54.1232 187.437 53.7043 187.772 53.441 187.993C52.699 188.591 52.3101 188.825 52.2802 189.255C52.2692 189.454 52.3216 189.651 52.4298 189.818C54.4104 190.087 55.8944 187.987 57.8152 187.461C58.174 187.407 58.5181 187.281 58.8265 187.09C59.0462 186.886 59.2161 186.634 59.3231 186.354C59.7659 185.402 60.3882 184.559 60.2027 183.757C60.0853 183.422 59.8906 183.118 59.6343 182.872C59.2689 182.422 58.8347 182.032 58.3477 181.717C51.3467 181.28 48.8096 181.053 48.3727 180.897Z" fill="#FFC895"/>
<g style="mix-blend-mode:multiply">
<g style="mix-blend-mode:multiply">
<path d="M141.798 236.652C140.565 222.634 139.404 210.076 139.201 208.054C138.307 198.581 137.396 189.138 136.466 179.725C136.466 172.342 136.227 164.367 135.527 155.877C134.773 146.664 133.606 138.126 132.236 130.324C131.781 131.856 131.841 134.554 131.715 135.428C131.08 139.819 130.124 144.159 128.855 148.41C126.313 156.968 122.546 165.114 117.671 172.593C117.276 173.191 115.481 175.471 113.285 178.756C112.034 180.616 111.077 182.154 110.502 183.093L111.478 183.051L113.016 182.973C113.603 182.459 114.16 181.912 114.685 181.334C120.13 175.507 125.677 169.494 128.723 162.117C129.385 167.143 130.052 172.166 130.722 177.188C130.88 177.698 130.873 178.245 130.702 178.751C130.532 179.257 130.205 179.696 129.77 180.006L128.478 181.28C128.962 181.202 129.447 181.107 129.938 181.023C132.888 198.463 135.593 216.615 137.944 235.467C140.996 259.811 143.21 283.228 144.754 305.604C145.307 305.486 145.848 305.316 146.369 305.095C146.703 304.957 147.027 304.798 147.339 304.617C146.19 289.438 144.209 264.047 141.798 236.652Z" fill="#DCE5F0"/>
</g>
</g>
<g style="mix-blend-mode:multiply">
<path d="M98.9896 145.862C95.1899 151.031 91.809 155.045 89.3557 157.792C83.6411 164.229 78.2557 169.267 71.1709 175.896C68.9629 177.96 67.1318 179.635 65.9351 180.724C71.3365 176.895 76.5187 172.767 81.457 168.357C87.7458 162.741 93.6193 156.676 99.0315 150.211C99.0195 148.764 99.0016 147.316 98.9896 145.862Z" fill="#DCE5F0"/>
</g>
<g style="mix-blend-mode:multiply">
<path d="M119.376 100.374C119.205 100.311 119.029 100.259 118.85 100.219C118.523 100.136 118.181 100.129 117.85 100.197C117.52 100.266 117.209 100.408 116.941 100.614C116.485 101.145 116.216 101.811 116.175 102.51C115.486 106.551 114.358 110.505 112.812 114.302C112.752 114.518 112.616 114.705 112.429 114.829C112.249 114.889 112.053 114.889 111.873 114.829C110.588 114.613 109.316 114.334 108.055 113.991C107.732 113.855 107.388 113.778 107.038 113.764C109.294 114.781 111.632 115.606 114.027 116.229L116.42 116.336L116.564 124.712C116.813 126.034 116.682 127.399 116.187 128.649C115.873 129.604 115.274 130.439 114.47 131.042C114.857 131.16 115.262 131.209 115.666 131.186C116.687 131.112 117.638 130.646 118.321 129.885C119.004 129.124 119.365 128.127 119.329 127.106C119.203 124.246 118.958 121.374 118.928 118.49C118.864 112.452 119.013 106.413 119.376 100.374Z" fill="#DCE5F0"/>
</g>
<path d="M112.723 100.404C111.927 100.162 111.208 99.7191 110.634 99.1178C110.342 98.8263 110.121 98.4708 109.989 98.0794C109.857 97.688 109.818 97.2714 109.874 96.8622C113.046 96.053 116.395 96.3095 119.406 97.5921C119.904 97.8219 120.385 98.0837 120.849 98.3759C120.741 100.237 120.555 102.235 120.25 104.359C119.897 106.919 119.436 109.289 118.928 111.436C118.796 109.989 118.712 108.397 118.718 106.65C118.726 104.931 118.824 103.214 119.012 101.505C116.878 101.394 114.766 101.025 112.723 100.404Z" fill="#A5651F"/>
<g style="mix-blend-mode:multiply">
<path d="M120.849 98.3759C120.385 98.0837 119.904 97.8219 119.407 97.5922C118.196 97.0424 116.909 96.6813 115.589 96.5212L115.75 96.5751C116.217 96.7479 116.607 97.0808 116.851 97.5144C117.011 97.8918 117.049 98.3096 116.96 98.7097C116.871 99.1097 116.66 99.472 116.355 99.746C115.727 100.284 114.926 100.577 114.099 100.572C113.685 100.568 113.272 100.526 112.866 100.446C114.868 101.05 116.935 101.411 119.024 101.523C118.836 103.232 118.738 104.949 118.73 106.668C118.73 108.385 118.808 109.977 118.94 111.454C119.448 109.307 119.909 106.937 120.262 104.377C120.555 102.235 120.741 100.237 120.849 98.3759Z" fill="#DCE5F0"/>
</g>
<path d="M120.053 106.495C120.302 106.58 120.523 106.729 120.696 106.928C120.868 107.126 120.985 107.367 121.034 107.625C121.071 107.917 121.035 108.212 120.931 108.487C120.827 108.761 120.657 109.006 120.436 109.199C120.007 109.635 119.431 109.893 118.82 109.923C118.754 109.384 118.712 108.792 118.694 108.158C118.676 107.524 118.694 107.015 118.736 106.513H118.928C119.3 106.45 119.679 106.444 120.053 106.495Z" fill="#FFC895"/>
<g style="mix-blend-mode:multiply">
<path d="M52.2084 195.041L50.4671 195.154C48.9358 200.623 48.6455 206.365 49.6174 211.96C50.9697 212.14 52.346 212.305 53.7462 212.457C57.7354 212.888 61.583 213.181 65.289 213.336C61.9589 212.974 58.6524 212.421 55.3858 211.679C53.9856 211.362 52.6332 211.015 51.3348 210.656C50.4545 205.451 50.7531 200.115 52.2084 195.041Z" fill="#DCE5F0"/>
</g>
<path d="M77.825 318.599L76.1436 318.138C62.705 290.131 54.307 259.975 51.3347 229.053L62.1056 229.508C63.3337 259.775 68.6207 289.739 77.825 318.599Z" fill="#F9FEFF"/>
<path d="M216.494 329.176C219.267 329.297 222.028 328.738 224.536 327.549C224.817 326.484 224.765 325.359 224.386 324.324C223.619 324.206 222.835 324.23 222.077 324.396C221.356 324.635 220.691 325.016 220.12 325.515C219.03 326.362 218.036 327.327 217.158 328.393C216.877 328.722 216.643 328.991 216.494 329.176Z" fill="#474747"/>
<path d="M203.635 329.332C204.636 329.306 205.635 329.218 206.626 329.069C208.873 328.737 211.063 328.099 213.137 327.172C213.197 326.4 213.137 325.629 213.137 324.857C213.151 324.746 213.126 324.634 213.065 324.54C213.008 324.496 212.942 324.464 212.872 324.448C212.802 324.431 212.729 324.43 212.658 324.444C211.832 324.431 211.007 324.473 210.187 324.57C209.947 324.623 209.618 324.755 208.009 325.868C206.931 326.576 205.898 327.349 204.915 328.183C204.359 328.638 203.94 329.057 203.635 329.332Z" fill="#474747"/>
<path d="M189.728 199.755C189.071 199.443 188.349 199.293 187.622 199.319C186.84 199.459 186.104 199.79 185.48 200.282C183.823 201.414 182.26 202.679 180.806 204.063C181.479 204.46 182.24 204.684 183.02 204.715C186.263 205.094 189.527 205.26 192.792 205.212C193.69 205.244 194.587 205.111 195.437 204.817C195.532 204.793 195.62 204.746 195.693 204.681C195.766 204.615 195.822 204.532 195.855 204.44C195.872 204.302 195.841 204.162 195.766 204.045C194.689 201.819 191.918 200.641 189.728 199.755Z" fill="#FFCAA5"/>
<path d="M212.838 324.719C212.4 325.028 211.877 325.193 211.342 325.193C210.806 325.193 210.284 325.028 209.846 324.719C208.761 317.141 207.699 309.503 206.662 301.805C205.41 292.551 204.213 283.356 203.072 274.218L213.843 274.314C214.184 281.673 214.328 289.456 214.214 297.611C214.052 307.183 213.562 316.241 212.838 324.719Z" fill="#FFCAA5"/>
<path d="M224.41 324.719C223.979 325.022 223.465 325.187 222.938 325.192C222.395 325.195 221.864 325.03 221.418 324.719C220.341 317.141 219.28 309.503 218.235 301.805C216.986 292.551 215.789 283.356 214.645 274.218L225.415 274.314C225.756 281.673 225.906 289.456 225.786 297.611C225.631 307.183 225.14 316.241 224.41 324.719Z" fill="#FFCAA5"/>
<g style="mix-blend-mode:multiply">
<path d="M204.251 283.545C207.53 283.965 210.841 284.084 214.142 283.898C214.076 280.631 213.968 277.431 213.825 274.326L205.286 274.248C204.556 274.35 203.826 274.457 203.096 274.577C203.473 277.55 203.868 280.548 204.251 283.545Z" fill="#DCE5F0"/>
</g>
<g style="mix-blend-mode:multiply">
<path d="M225.703 282.929C225.635 279.997 225.535 277.126 225.403 274.314L214.633 274.218C215.031 277.409 215.442 280.6 215.865 283.79C217.571 283.689 219.27 283.557 220.957 283.42C222.537 283.306 224.129 283.174 225.703 282.929Z" fill="#DCE5F0"/>
</g>
<path d="M237.616 273.177C220.446 279.76 201.469 279.887 184.211 273.536C187.233 263.365 190.027 252.41 192.385 240.72C194.856 228.479 196.573 216.878 197.686 206.019C202.994 204.613 211.449 203.183 220.58 205.391C221.873 205.702 223.082 206.067 224.219 206.462C225.357 219.051 227.251 231.56 229.891 243.921C232.135 254.343 234.774 264.113 237.616 273.177Z" fill="#98529C"/>
<g style="mix-blend-mode:multiply">
<path d="M229.891 243.921C227.246 231.566 225.345 219.063 224.201 206.48C223.064 206.085 221.855 205.72 220.563 205.409C220.12 205.301 219.683 205.212 219.246 205.122C219.124 205.888 219.223 206.673 219.533 207.383C220.554 230.369 224.641 253.116 231.687 275.02C231.687 275.055 231.687 275.115 231.722 275.187C234.116 274.487 236.103 273.775 237.622 273.177C234.774 264.113 232.135 254.343 229.891 243.921Z" fill="#DCE5F0"/>
</g>
<path d="M210.091 131.652C211.417 131.879 212.687 132.361 213.831 133.07C213.938 134.201 214.082 135.374 214.286 136.576C215.276 142.427 217.289 148.057 220.233 153.209C218.237 153.559 216.2 153.605 214.19 153.346C213.223 153.176 212.269 152.938 211.335 152.634L210.181 152.204L208.266 151.767C206.48 151.681 204.7 151.495 202.934 151.21C200.901 150.879 198.89 150.42 196.915 149.834C199.127 147.375 200.918 144.567 202.216 141.524C203.386 138.428 204.341 135.256 205.076 132.029C206.693 131.499 208.414 131.37 210.091 131.652Z" fill="#825003"/>
<path d="M158.002 197.314C157.683 197.279 157.36 197.324 157.063 197.446C156.843 197.566 156.65 197.729 156.494 197.925C154.774 199.772 153.175 201.729 151.707 203.782C155.77 203.74 159.929 204.332 163.824 203.183C164.571 203 165.268 202.652 165.865 202.166C166.197 201.889 166.44 201.521 166.565 201.107C166.689 200.693 166.689 200.251 166.565 199.837C166.441 199.423 166.198 199.054 165.866 198.777C165.534 198.5 165.128 198.326 164.698 198.278C162.49 197.804 160.253 197.483 158.002 197.314Z" fill="#FFCAA5"/>
<path d="M223.423 181.944C223.363 187.269 223.267 191.29 223.525 197.171C223.71 201.311 223.997 204.727 224.219 207.054C219.025 208.67 213.615 209.477 208.176 209.448C204.567 209.432 200.97 209.043 197.441 208.287C197.543 207.581 197.627 206.821 197.687 206.013C197.759 204.898 197.769 203.779 197.716 202.663C197.994 202.59 198.265 202.492 198.524 202.37C200.613 201.383 201.091 198.78 201.606 198.337C205.328 195.077 208.834 191.517 211.545 187.383C213.315 184.541 214.894 181.585 216.272 178.534C218.666 173.503 220.85 168.962 221.837 166.748C222.507 165.258 223.034 164.008 223.435 163.128C223.507 171.05 223.471 177.451 223.423 181.944Z" fill="#F0ACF0"/>
<path d="M166.583 201.107C166.689 201.537 166.825 201.959 166.99 202.37C173.439 201.155 179.633 198.848 185.306 195.549C187.625 194.193 189.845 192.674 191.948 191.002L198.351 182.525C198.399 187.06 198.297 191.75 198.016 196.59C197.96 197.508 197.9 198.417 197.836 199.319L193.683 201.712C193.863 202.585 194.347 203.367 195.048 203.919C195.569 204.32 196.19 204.572 196.843 204.649C200.9 202.756 204.84 200.622 208.643 198.26C211.635 196.417 214.309 194.55 216.745 192.725C220.458 183.255 222.712 173.275 223.429 163.128L213.137 159.473L207.027 158.545L198.776 161.71C197.615 165.423 196.249 169.068 194.683 172.629C193.259 175.97 191.628 179.219 189.8 182.357C188.543 184.487 187.406 186.24 186.485 187.532C184.805 189.03 183.021 190.408 181.147 191.655C176.595 194.671 171.572 196.907 166.283 198.272C166.245 199.226 166.346 200.182 166.583 201.107Z" fill="#F0ACF0"/>
<g style="mix-blend-mode:multiply">
<path d="M166.092 199.013C165.726 198.625 165.242 198.367 164.716 198.278C164.034 198.164 163.34 198.032 162.639 197.901C162.604 198.349 162.639 198.888 162.639 199.175C162.634 199.328 162.604 199.48 162.55 199.624C162.419 199.862 162.206 200.045 161.951 200.138C161.221 200.479 160.258 200.533 159.851 201.227C159.736 201.448 159.659 201.687 159.624 201.933C159.498 202.579 159.366 203.225 159.235 203.871C160.779 203.829 162.312 203.598 163.8 203.183C164.407 203.019 164.984 202.76 165.512 202.418C165.56 202.298 165.601 202.178 165.643 202.065C165.983 201.085 166.135 200.05 166.092 199.013Z" fill="#DCE5F0"/>
</g>
<g style="mix-blend-mode:multiply">
<path d="M191.948 191.002L198.351 182.525C198.189 181.986 197.962 181.196 197.704 180.227C197.566 179.779 197.46 179.321 197.387 178.857C197.302 177.87 197.484 176.878 197.914 175.985C198.512 174.514 199.2 172.539 200.032 170.003C199.072 171.997 198.005 173.938 196.837 175.818C196.102 176.803 195.616 177.95 195.419 179.162C195.304 180.348 195.51 181.542 196.017 182.62L194.575 184.415C193.294 186.019 192.636 186.808 191.882 187.658C191.187 188.436 190.446 189.171 189.662 189.86C188.627 190.726 187.538 191.525 186.401 192.253C185.414 192.968 184.311 193.507 183.14 193.844C182.365 193.99 181.576 194.046 180.788 194.012H177.198C175.541 194.909 173.833 195.708 172.082 196.405C172.106 196.443 172.134 196.479 172.166 196.513C172.954 197.292 173.971 197.799 175.068 197.96C176.894 198.285 178.762 198.312 180.597 198.038C182.135 197.32 183.708 196.513 185.294 195.585C187.618 194.218 189.842 192.686 191.948 191.002Z" fill="#DCE5F0"/>
</g>
<g style="mix-blend-mode:multiply">
<path d="M208.152 151.629C208.431 149.848 208.481 148.039 208.302 146.245C208.298 146.125 208.266 146.008 208.206 145.904C208.117 145.782 207.991 145.692 207.847 145.646C207.015 145.311 206.052 145.198 205.346 144.677C204.897 144.354 204.341 144.139 204.149 144.809C203.958 145.479 203.922 146.364 203.766 147.106C203.7 147.405 203.03 149.948 202.635 151.037C202.737 151.037 202.839 151.079 202.94 151.091C202.976 151.094 203.012 151.094 203.048 151.091C203.084 151.019 203.12 150.941 203.15 150.863C203.891 148.959 204.431 146.982 204.759 144.964H205.166C205.119 147.094 204.764 149.206 204.113 151.234L205.113 151.36C205.547 150.124 205.83 148.841 205.956 147.537C206.017 148.842 205.937 150.15 205.717 151.438C206.555 151.527 207.368 151.587 208.152 151.629Z" fill="#DCE5F0"/>
</g>
<path d="M207.751 146.502L203.736 145.581C204.107 142.003 204.91 138.483 206.13 135.099C206.752 134.932 207.395 134.857 208.038 134.877C208.75 134.894 209.455 135.024 210.127 135.26C209.947 137.952 209.846 140.83 209.864 143.876C209.864 146.765 209.995 149.505 210.181 152.072L211.336 152.503C211.358 154.938 211.974 157.33 213.131 159.473C212.261 162.217 210.857 164.762 209.002 166.963C208.383 165.605 207.904 164.188 207.572 162.733C207.259 161.358 207.077 159.955 207.027 158.545C207.425 156.61 207.687 154.649 207.811 152.676C207.943 150.62 207.923 148.556 207.751 146.502Z" fill="#FFCAA5"/>
<g style="mix-blend-mode:multiply">
<path d="M223.524 197.171C223.267 191.29 223.363 187.269 223.423 181.944C223.471 177.714 223.507 171.774 223.423 164.516V163.972C223.423 163.703 223.423 163.421 223.423 163.152C221.388 172.462 219.234 181.825 215.225 190.47C215.012 190.982 214.73 191.464 214.387 191.9C214.031 192.279 213.629 192.612 213.19 192.893C209.416 195.641 205.503 198.195 201.468 200.545C199.41 201.7 197.284 202.729 195.101 203.626L194.802 203.746C194.874 203.816 194.95 203.882 195.03 203.943C195.551 204.344 196.172 204.596 196.825 204.673C200.882 202.78 204.822 200.646 208.625 198.284C211.617 196.441 214.291 194.574 216.727 192.749C217.487 190.811 218.241 188.711 218.953 186.461C218.911 187.808 218.953 189.166 218.983 190.512C219.09 194.341 219.212 198.166 219.348 201.987C219.408 203.901 219.473 205.81 219.539 207.725C219.547 207.907 219.565 208.089 219.593 208.269C221.304 207.898 222.848 207.473 224.195 207.072C223.997 204.727 223.71 201.311 223.524 197.171Z" fill="#DCE5F0"/>
</g>
<path d="M164.742 198.318L164.731 203.631C164.728 204.986 165.824 206.087 167.179 206.089L182.641 206.122C183.996 206.125 185.097 205.029 185.1 203.674L185.111 198.361C185.114 197.006 184.017 195.906 182.662 195.903L167.2 195.871C165.845 195.868 164.745 196.964 164.742 198.318Z" fill="#E73B3B"/>
<g style="mix-blend-mode:multiply">
<path d="M182.655 195.884H177.653C177.966 195.926 178.274 196.004 178.568 196.118C179.25 196.393 179.83 196.874 180.226 197.494C181.303 199.342 180.034 201.951 181.219 203.734C181.616 204.262 182.168 204.652 182.798 204.85C183.428 205.047 184.105 205.042 184.732 204.835C184.936 204.469 185.043 204.057 185.043 203.638V198.319C185.038 197.683 184.787 197.074 184.341 196.619C183.896 196.165 183.291 195.901 182.655 195.884Z" fill="#DCE5F0"/>
</g>
<path d="M186.694 208.466L161.359 208.413V201.897C165.242 201.532 169.521 201.299 174.128 201.299C178.736 201.299 182.865 201.55 186.694 201.927C186.7 204.117 186.694 206.295 186.694 208.466Z" fill="#659CEC"/>
<g style="mix-blend-mode:multiply">
<path d="M186.706 201.945C185.282 201.807 183.804 201.682 182.272 201.586C182.153 202.603 182.147 204.835 182.033 204.835L186.407 205.176C186.461 205.194 186.52 205.194 186.575 205.176C186.631 205.127 186.668 205.059 186.676 204.984C186.674 204.946 186.674 204.908 186.676 204.871C186.7 203.883 186.7 202.914 186.706 201.945Z" fill="#DCE5F0"/>
</g>
<path d="M172.824 339.341C176.01 340.447 179.384 340.912 182.751 340.711C186.831 340.45 190.811 339.333 194.431 337.433C193.608 320.386 193.948 303.304 195.448 286.303C196.868 270.231 199.28 254.262 202.671 238.488L145.867 240.283C147.876 256.36 150.944 272.287 155.052 287.96C159.647 305.519 165.588 322.696 172.824 339.341Z" fill="#9CBFFD"/>
<g style="mix-blend-mode:multiply">
<path d="M202.671 238.512L145.867 240.307C146.07 241.923 146.288 243.562 146.519 245.225C149.062 245.668 151.982 245.536 154.298 245.71C162.979 246.356 171.69 246.5 180.387 246.14C185.302 245.929 190.205 245.562 195.095 245.04C189.435 275.926 188.308 307.472 191.751 338.683C192.81 338.258 193.707 337.828 194.425 337.457C193.602 320.41 193.942 303.328 195.443 286.327C196.864 270.255 199.278 254.286 202.671 238.512Z" fill="#DCE5F0"/>
</g>
<path d="M204.55 238.476C196.173 239.721 186.999 240.708 177.102 241.216C165.713 241.796 154.3 241.695 142.923 240.911C140.937 233.807 140.328 226.389 141.128 219.056C141.714 213.698 143.054 208.449 145.107 203.465C154.521 203.213 164.295 203.164 174.427 203.315C185.334 203.491 195.835 203.89 205.932 204.512C206.275 210.629 206.301 216.759 206.01 222.879C205.711 228.485 205.202 233.696 204.55 238.476Z" fill="#BFDBFF"/>
<path d="M194.102 230.304C186.392 231.214 178.631 231.636 170.867 231.566C163.39 231.5 155.924 230.977 148.512 229.999C147.527 224.319 147.824 218.492 149.379 212.942C157.122 212.385 165.458 212.074 174.314 212.14C181.907 212.194 189.1 212.523 195.855 213.031C195.081 216.42 194.559 219.862 194.294 223.328C194.112 225.648 194.048 227.977 194.102 230.304Z" fill="#FF73B9"/>
<g style="mix-blend-mode:multiply">
<path d="M205.956 222.903C206.124 219.409 206.16 216.364 206.154 213.977C206.154 210.525 206.034 207.395 205.878 204.536C203.712 204.368 201.498 204.227 199.236 204.111C196.843 203.985 194.503 203.896 192.217 203.836C195.62 204.359 198.899 205.498 201.893 207.198C201.849 210.509 201.785 213.851 201.702 217.225C201.526 223.962 201.265 230.571 200.918 237.052C197.327 238.201 193.715 239.266 190.081 240.247C195.125 239.757 199.954 239.158 204.532 238.452C205.202 233.696 205.711 228.485 205.956 222.903Z" fill="#DCE5F0"/>
</g>
<path d="M171.214 196.327C168.527 196.237 166.667 196.363 165.99 197.189C165.773 197.486 165.598 197.813 165.47 198.158C165.398 198.539 165.362 198.925 165.362 199.313C165.634 199.457 165.94 199.52 166.247 199.496C166.553 199.471 166.846 199.36 167.091 199.175C167.332 198.942 167.488 198.634 167.534 198.302C167.726 197.572 169.281 196.782 175.475 196.626C173.769 196.441 172.321 196.363 171.214 196.327Z" fill="#FFDFDF"/>
<g style="mix-blend-mode:multiply">
<path d="M151.126 212.822L149.367 212.942C147.816 218.493 147.524 224.32 148.512 229.999C149.888 230.178 151.284 230.346 152.7 230.501C156.745 230.938 160.659 231.225 164.417 231.399C161.035 231.039 157.676 230.486 154.358 229.741C152.934 229.418 151.561 229.071 150.241 228.7C149.357 223.417 149.66 218.004 151.126 212.852V212.822Z" fill="#DCE5F0"/>
</g>
<g style="mix-blend-mode:multiply">
<path d="M214.286 136.576C214.082 135.38 213.938 134.183 213.831 133.071C213.195 132.676 212.519 132.351 211.814 132.101C211.817 132.159 211.817 132.217 211.814 132.275C211.742 133.4 211.713 134.53 211.724 135.661C211.736 136.792 211.778 137.923 211.862 139.047C211.946 140.172 212.233 141.279 212.233 142.362C212.233 139.969 212.233 137.51 212.963 135.224C212.676 138.371 212.976 141.544 213.849 144.582C214.716 147.614 215.833 150.57 217.188 153.418C217.188 153.448 217.224 153.478 217.236 153.514C218.238 153.476 219.238 153.374 220.227 153.209C217.286 148.056 215.274 142.426 214.286 136.576Z" fill="#DCE5F0"/>
</g>
<g style="mix-blend-mode:multiply">
<path d="M213.137 159.473C211.98 157.33 211.364 154.938 211.342 152.503L210.187 152.072C210.001 149.505 209.882 146.765 209.87 143.875C209.87 140.83 209.953 137.952 210.133 135.26L209.618 135.105C209.493 136.104 209.373 137.115 209.253 138.138C208.986 140.567 208.763 142.942 208.583 145.263L206.393 145.401C205.495 145.455 204.598 145.497 203.73 145.539V145.575L204.424 145.736L207.745 146.502L209.253 146.723C209.307 148.249 209.391 149.517 209.463 150.409C209.929 156.392 210.701 158.569 210.947 159.215C211.297 160.143 211.717 161.043 212.203 161.908C212.563 161.115 212.875 160.302 213.137 159.473Z" fill="#DCE5F0"/>
</g>
<path d="M177.832 338.199L176.127 337.738C162.493 309.306 153.976 278.694 150.965 247.307L161.915 247.768C163.149 278.488 168.502 308.903 177.832 338.199Z" fill="#F9FEFF"/>
<path d="M315.657 124.581C315.915 123.528 316.387 122.535 316.621 121.476C316.789 120.508 316.859 119.526 316.83 118.544C316.878 117.916 316.78 117.285 316.543 116.701C316.313 116.326 316.007 116.003 315.644 115.753C315.281 115.504 314.87 115.333 314.437 115.254C313.581 115.038 312.689 114.996 311.846 114.745C311.002 114.494 310.2 114.021 309.338 113.77C308.102 113.497 306.828 113.449 305.575 113.626C304.942 113.62 304.321 113.79 303.779 114.117C303.553 114.317 303.381 114.571 303.28 114.856C303.178 115.14 303.149 115.446 303.197 115.744C303.245 116.042 303.367 116.324 303.553 116.562C303.738 116.801 303.981 116.989 304.258 117.108C304.388 117.126 304.505 117.192 304.587 117.294C304.701 117.491 304.498 117.713 304.342 117.892C303.744 118.544 303.791 119.531 303.863 120.411L304.073 122.894C304.063 123.128 304.101 123.362 304.184 123.581C304.267 123.8 304.394 124 304.557 124.168C305.156 123.175 306.7 123.205 307.723 123.785C308.826 124.51 309.708 125.524 310.272 126.717C310.87 127.764 311.331 129.433 312.312 130.169C315.364 132.418 315.328 125.903 315.657 124.581Z" fill="#A54C11"/>
<path d="M336.547 335.476C336.576 335.732 336.687 335.971 336.864 336.158C337.123 336.344 337.426 336.46 337.743 336.493C339.222 336.782 340.724 336.936 342.231 336.954C342.748 336.938 343.264 336.987 343.769 337.098C344.201 337.255 344.616 337.456 345.008 337.696C347.712 339.084 351.171 338.893 354.36 338.617C355.084 338.558 355.898 338.456 356.305 337.965C356.472 337.725 356.541 337.431 356.5 337.141C356.459 336.852 356.311 336.588 356.084 336.404C355.587 335.973 355.009 335.646 354.384 335.44C351.991 334.477 349.466 333.502 347.802 331.803C347.108 331.097 346.575 330.277 345.69 329.733C344.559 329.039 343.165 328.973 341.806 328.973C341.005 328.973 338.539 328.722 337.893 329.027C336.026 329.888 336.259 334.011 336.547 335.476Z" fill="#474747"/>
<path d="M296.623 326.329C292.661 325.994 291.01 329.601 288.527 332.018C286.672 333.813 284.141 334.878 282.501 336.882C285.595 337.534 288.892 338.169 291.848 337.05C292.503 336.752 293.176 336.496 293.864 336.284C294.265 336.188 294.672 336.146 295.061 336.075C295.061 336.17 295.103 336.266 295.127 336.368C295.13 336.426 295.148 336.482 295.179 336.532C295.209 336.581 295.252 336.622 295.303 336.65C295.353 336.679 295.41 336.694 295.468 336.695C295.527 336.696 295.584 336.682 295.635 336.655C296.937 336.416 298.207 336.032 299.423 335.512C299.703 335.411 299.959 335.254 300.177 335.052C300.527 334.583 300.693 334.001 300.644 333.418C300.776 329.948 300.764 326.664 296.623 326.329Z" fill="#474747"/>
<g style="mix-blend-mode:multiply">
<path d="M356.084 336.38C355.587 335.95 355.009 335.622 354.384 335.417C351.991 334.453 349.466 333.478 347.802 331.779C347.108 331.073 346.576 330.253 345.69 329.709C344.559 329.015 343.165 328.949 341.806 328.949C341.005 328.949 338.539 328.698 337.893 329.003C337.562 329.204 337.277 329.473 337.058 329.793C336.839 330.113 336.691 330.476 336.625 330.858C337.098 331.019 337.581 331.147 338.073 331.241C339.93 331.705 341.867 331.752 343.745 331.378C343.922 331.33 344.107 331.33 344.284 331.378C344.44 331.441 344.579 331.539 344.691 331.665C346.031 332.94 347.748 333.729 349.43 334.495L354.145 336.637C354.658 336.829 355.123 337.129 355.509 337.517C355.697 337.738 355.819 338.007 355.862 338.294C356.033 338.217 356.185 338.103 356.305 337.959C356.477 337.718 356.55 337.419 356.509 337.126C356.468 336.832 356.316 336.565 356.084 336.38Z" fill="#DCE5F0"/>
</g>
<g style="mix-blend-mode:multiply">
<path d="M296.623 326.329C292.661 325.994 291.01 329.601 288.527 332.018C287.339 333.052 286.079 334 284.757 334.854C284.708 335.689 284.758 336.526 284.906 337.349C287.114 337.72 289.346 337.858 291.429 337.188C290.993 336.928 290.651 336.537 290.452 336.07C290.253 335.603 290.207 335.085 290.322 334.591C290.579 333.586 291.465 332.958 292.237 332.353C293.751 331.157 295.45 327.812 297.855 329.2C298.285 329.314 298.662 329.574 298.921 329.936C299.322 330.631 299.513 331.427 299.471 332.228C299.499 332.948 299.455 333.67 299.339 334.382C299.244 334.836 299.102 335.279 298.915 335.704L299.423 335.5C299.703 335.399 299.959 335.242 300.177 335.04C300.527 334.571 300.693 333.99 300.644 333.406C300.776 329.948 300.764 326.664 296.623 326.329Z" fill="#DCE5F0"/>
</g>
<path d="M345.056 329.164C344.209 329.653 343.29 330.005 342.333 330.205C340.381 330.581 338.361 330.347 336.547 329.535C331.688 315.954 326.973 301.003 322.724 284.76C318.374 268.091 315.137 252.363 312.719 237.83C310.697 255.272 308.459 272.973 306.005 290.934C304.294 303.454 302.513 315.819 300.662 328.028C298.758 328.132 296.849 328.112 294.947 327.968C293.463 327.854 292.087 327.681 290.83 327.465C290.232 305.365 290.232 282.025 291.07 257.568C291.758 237.453 292.955 218.147 294.528 199.707C302.235 199.478 309.89 198.37 317.345 196.405C320.247 195.639 325.602 192.881 330.371 195.208C331.616 195.822 332.72 196.685 333.615 197.745C335.573 217.532 337.442 237.507 339.221 257.669C341.332 281.728 343.276 305.56 345.056 329.164Z" fill="#6A8BCB"/>
<path d="M262.863 198.776L262.852 204.287C262.849 205.691 263.986 206.831 265.39 206.834L281.427 206.865C282.831 206.868 283.972 205.731 283.975 204.327L283.985 198.817C283.988 197.413 282.852 196.272 281.447 196.269L265.411 196.239C264.006 196.236 262.865 197.372 262.863 198.776Z" fill="#E73B3B"/>
<g style="mix-blend-mode:multiply">
<path d="M281.472 196.285H276.284C276.608 196.328 276.928 196.406 277.235 196.519C277.952 196.808 278.561 197.314 278.976 197.966C280.095 199.881 278.779 202.585 280.006 204.434C280.416 204.981 280.988 205.386 281.641 205.591C282.293 205.796 282.994 205.791 283.644 205.577C283.854 205.213 283.968 204.801 283.973 204.38V198.864C283.982 198.191 283.725 197.541 283.256 197.057C282.787 196.574 282.145 196.296 281.472 196.285Z" fill="#DCE5F0"/>
</g>
<path d="M285.654 209.328L259.385 209.274V202.513C263.419 202.137 267.847 201.915 272.628 201.915C277.409 201.915 281.687 202.178 285.654 202.567C285.666 204.823 285.66 207.072 285.654 209.328Z" fill="#659CEC"/>
<g style="mix-blend-mode:multiply">
<path d="M285.666 202.567C284.19 202.424 282.66 202.3 281.077 202.196C280.951 203.249 280.939 205.565 280.825 205.565L285.361 205.918C285.418 205.936 285.478 205.936 285.535 205.918C285.592 205.867 285.629 205.796 285.636 205.72C285.639 205.68 285.639 205.64 285.636 205.601C285.666 204.577 285.666 203.572 285.666 202.567Z" fill="#DCE5F0"/>
</g>
<path d="M332.621 172.647C331.802 162.644 330.527 153.388 329.031 144.964C317.441 141.389 305.071 141.204 293.38 144.432C290.794 148.157 288.132 151.922 285.391 155.727C282.487 159.74 279.595 163.661 276.715 167.49C278.866 170.988 282.096 173.692 285.918 175.196C287.378 173.76 288.852 172.28 290.34 170.756C291.668 169.392 292.961 168.036 294.217 166.688C294.594 172.874 294.762 179.503 294.612 186.533C294.516 191.266 294.289 195.807 293.954 200.138L305.389 205.559L311.211 200.425L316.597 205.212L333.609 197.757C333.639 189.979 333.357 181.585 332.621 172.647Z" fill="#FF9800"/>
<path d="M307.082 143.373C307.489 144.193 307.783 145.036 307.902 145.335C308.43 146.697 309.052 148.021 309.763 149.296C309.979 149.653 310.23 149.987 310.511 150.295C310.99 149.571 311.433 148.823 311.923 148.147C312.899 146.813 313.719 145.395 314.556 144.007C314.443 142.027 314.323 140.041 314.305 138.024C314.269 134.213 314.305 130.402 314.455 126.597L314.119 125.401V127.74C314.084 127.8 313.856 128.183 313.587 128.159C313.503 128.159 313.306 128.087 313.102 127.506C312.825 126.611 312.798 125.658 313.024 124.748C313.188 123.949 313.441 123.17 313.778 122.427C313.569 122.173 313.41 121.88 313.312 121.565C313.136 120.972 313.178 120.335 313.431 119.771C312.896 119.618 312.412 119.322 312.031 118.915C311.977 118.855 311.929 118.789 311.876 118.724C311.522 118.754 310.888 118.724 310.834 118.724C310.162 118.717 309.503 118.531 308.925 118.185C308.425 118.702 307.777 119.051 307.071 119.184C306.642 119.273 306.197 119.227 305.796 119.053C304.408 123.691 303.021 128.332 301.637 132.975C304.072 134.083 306.599 134.978 309.189 135.649C308.495 138.234 307.793 140.808 307.082 143.373Z" fill="#FFC895"/>
<g style="mix-blend-mode:multiply">
<path d="M306.005 290.934C306.568 286.83 307.669 278.699 308.997 268.319C310.505 256.515 311.744 246.182 312.719 237.806C312.364 236.442 312.017 235.06 311.678 233.66C311.139 231.466 310.635 229.301 310.164 227.163C308.09 245.303 305.834 263.666 303.396 282.253C301.597 295.986 299.732 309.575 297.802 323.02L295.246 322.643C294.784 316.577 294.415 310.356 294.139 303.983C293.541 290.533 293.493 277.658 293.816 265.417L291.967 265.896C291.528 266.437 291.128 267.009 290.771 267.607C290.244 288.427 290.304 308.404 290.83 327.465C292.087 327.681 293.463 327.854 294.947 327.968C296.849 328.112 298.758 328.132 300.662 328.028C302.513 315.827 304.294 303.462 306.005 290.934Z" fill="#DCE5F0"/>
</g>
<path d="M267.416 345.043C270.72 346.187 274.217 346.671 277.708 346.467C281.937 346.202 286.064 345.05 289.819 343.087C288.97 325.41 289.323 307.695 290.878 290.066C292.351 273.409 294.853 256.859 298.37 240.51L239.465 242.341C241.551 259.013 244.733 275.53 248.992 291.784C253.757 309.983 259.916 327.789 267.416 345.043Z" fill="#9CBFFD"/>
<g style="mix-blend-mode:multiply">
<path d="M298.37 240.51L239.465 242.341C239.681 244.022 239.902 245.722 240.142 247.445C242.78 247.905 245.814 247.774 248.22 247.953C257.221 248.622 266.254 248.768 275.272 248.39C280.363 248.179 285.445 247.8 290.519 247.253C284.66 279.281 283.493 311.991 287.054 344.355C288.156 343.918 289.083 343.469 289.825 343.086C288.976 325.41 289.329 307.695 290.884 290.066C292.355 273.409 294.855 256.859 298.37 240.51Z" fill="#DCE5F0"/>
</g>
<path d="M300.315 240.451C291.632 241.743 282.112 242.76 271.856 243.287C260.046 243.889 248.211 243.785 236.414 242.975C234.345 235.608 233.705 227.914 234.529 220.306C235.137 214.754 236.527 209.316 238.658 204.153C248.411 203.893 258.54 203.842 269.043 203.997C280.359 204.177 291.255 204.595 301.709 205.266C302.063 211.61 302.091 217.968 301.793 224.315C301.517 230.088 300.991 235.491 300.315 240.451Z" fill="#BFDBFF"/>
<path d="M289.478 231.973C273.769 233.83 257.889 233.723 242.206 231.656C241.182 225.766 241.489 219.721 243.104 213.965C251.134 213.366 259.781 213.073 268.96 213.139C276.834 213.199 284.296 213.534 291.303 214.066C289.964 219.938 289.361 225.953 289.508 231.973H289.478Z" fill="#57E147"/>
<g style="mix-blend-mode:multiply">
<path d="M238.658 204.141C237.514 206.93 236.584 209.802 235.875 212.732C238.712 212.439 240.249 210.387 242.051 208.448C243.014 207.407 244.444 206.534 245.796 206.905C245.611 207.348 244.875 207.671 245.138 208.072C245.198 208.149 245.276 208.211 245.366 208.251C246.67 208.915 248.268 208.484 249.554 207.844C250.841 207.204 252.139 206.348 253.593 206.163C253.865 206.159 254.13 206.081 254.359 205.936C254.515 205.78 254.627 205.586 254.682 205.373L255.215 203.901C249.602 203.919 244.061 204.015 238.658 204.141Z" fill="#DCE5F0"/>
</g>
<g style="mix-blend-mode:multiply">
<path d="M301.793 224.303C302.098 217.907 302.038 211.948 301.793 206.486C300.799 206.354 299.788 206.211 298.759 206.049C296.312 205.666 293.972 205.212 291.764 204.709L287.575 204.53L287.946 206.163C288.022 206.698 288.293 207.185 288.706 207.533C289.172 207.837 289.724 207.979 290.278 207.939C290.833 207.899 291.359 207.679 291.776 207.312C291.776 208.682 291.734 209.807 291.692 210.608C291.614 212.044 291.525 212.732 291.901 213.001C292.374 213.307 293.272 212.708 293.697 212.403C293.791 213.012 294.058 213.581 294.465 214.043C294.872 214.505 295.403 214.841 295.994 215.012C296.532 215.126 297.091 215.074 297.598 214.862C297.546 216.059 297.488 217.255 297.425 218.452C297.101 225.356 296.832 232.21 296.617 239.015C292.895 240.211 289.149 241.316 285.379 242.329C290.609 241.821 295.617 241.199 300.339 240.493C300.991 235.491 301.517 230.088 301.793 224.303Z" fill="#DCE5F0"/>
</g>
<path d="M274.022 197.051C272.257 196.86 270.755 196.776 269.612 196.74C266.818 196.65 264.891 196.782 264.191 197.631C263.87 198.116 263.614 198.641 263.431 199.193C263.353 199.432 263.329 199.552 263.383 199.672C263.58 200.102 264.735 200.198 265.334 199.672C265.582 199.432 265.743 199.116 265.788 198.774C265.992 198.032 267.589 197.213 274.022 197.051Z" fill="#FFDFDF"/>
<path d="M286.139 174.986C284.15 174.406 282.301 173.422 280.709 172.096C279.116 170.77 277.814 169.131 276.882 167.28C275.853 168.648 274.814 170.021 273.764 171.397C266.057 181.468 258.414 190.945 250.835 199.827C243.881 199.402 241.314 199.151 240.86 198.99C240.732 198.934 240.595 198.906 240.456 198.906C240.317 198.906 240.179 198.934 240.052 198.99C239.907 199.081 239.784 199.203 239.693 199.348C237.165 202.805 235.392 206.753 234.487 210.937C235.279 211.238 236.14 211.307 236.97 211.135C237.6 210.998 238.194 210.733 238.717 210.357C239.495 209.807 239.782 209.274 240.513 208.239C241.105 207.426 241.738 206.643 242.409 205.894L247.406 205.439C246.861 205.9 246.419 206.253 246.125 206.48C245.341 207.078 244.929 207.36 244.929 207.814C244.919 208.025 244.974 208.233 245.084 208.413C247.172 208.694 248.734 206.48 250.763 205.93C251.142 205.874 251.507 205.741 251.834 205.541C252.065 205.325 252.243 205.059 252.354 204.763C252.743 203.931 253.252 203.195 253.306 202.478C261.285 196.81 268.949 190.712 276.266 184.212C279.764 181.097 283.055 178.022 286.139 174.986Z" fill="#FFC895"/>
<g style="mix-blend-mode:multiply">
<path d="M316.543 116.701C316.313 116.326 316.007 116.003 315.644 115.753C315.281 115.504 314.87 115.333 314.436 115.254C313.581 115.038 312.689 114.996 311.845 114.745C311.193 114.554 310.589 114.237 309.961 113.985C310.109 114.122 310.24 114.277 310.35 114.446C310.494 114.656 310.556 114.911 310.523 115.164C310.415 115.762 309.649 115.995 309.434 116.552C309.801 116.78 310.229 116.892 310.661 116.875C311.032 116.875 311.492 116.797 311.684 117.114C311.875 117.431 311.684 117.713 311.492 117.964C311.791 117.939 312.089 118.013 312.342 118.173C312.403 118.215 312.456 118.269 312.496 118.331C312.536 118.393 312.563 118.463 312.576 118.536C312.589 118.609 312.587 118.684 312.57 118.756C312.554 118.829 312.523 118.897 312.48 118.957C312.378 119.071 312.211 119.119 312.127 119.25C312.091 119.308 312.068 119.374 312.061 119.442C311.718 119.982 311.513 120.598 311.463 121.236C310.737 125.489 309.549 129.65 307.92 133.645C307.859 133.872 307.716 134.068 307.519 134.195C307.325 134.261 307.115 134.261 306.921 134.195C305.568 133.968 304.228 133.669 302.906 133.31C302.563 133.17 302.199 133.089 301.829 133.071C304.204 134.143 306.666 135.012 309.189 135.667L311.708 135.781C311.76 138.724 311.81 141.668 311.857 144.611C312.119 146.003 311.982 147.44 311.463 148.758C311.427 148.841 311.391 148.931 311.349 149.015C311.54 148.716 311.738 148.417 311.947 148.141C312.923 146.807 313.742 145.389 314.58 144.001C314.466 142.021 314.347 140.035 314.329 138.018C314.329 135.23 314.329 132.442 314.407 129.642L314.58 129.774C315.388 128.332 315.448 125.383 315.657 124.539C315.914 123.486 316.387 122.493 316.621 121.434C316.789 120.466 316.859 119.484 316.83 118.502C316.871 117.888 316.773 117.272 316.543 116.701Z" fill="#DCE5F0"/>
</g>
<path d="M315.531 125.418C315.795 125.509 316.029 125.668 316.212 125.878C316.394 126.088 316.519 126.342 316.573 126.615C316.607 126.922 316.566 127.233 316.455 127.522C316.344 127.81 316.164 128.068 315.932 128.272C315.479 128.728 314.87 128.997 314.227 129.026C314.161 128.464 314.113 127.829 314.101 127.171C314.089 126.513 314.101 125.975 314.143 125.442H314.341C314.734 125.377 315.135 125.369 315.531 125.418Z" fill="#FFC895"/>
<g style="mix-blend-mode:multiply">
<path d="M244.917 213.845L243.092 213.965C241.477 219.721 241.17 225.766 242.194 231.656C243.618 231.841 245.066 232.021 246.538 232.176C250.727 232.631 254.79 232.93 258.691 233.104C255.186 232.724 251.706 232.143 248.268 231.363C246.79 231.022 245.372 230.663 244.001 230.28C243.552 227.615 243.394 224.908 243.529 222.209C243.676 219.378 244.142 216.572 244.917 213.845Z" fill="#DCE5F0"/>
</g>
<g style="mix-blend-mode:multiply">
<path d="M339.221 257.669C337.446 237.507 335.577 217.532 333.615 197.745C333.615 189.967 333.357 181.591 332.621 172.647C331.807 162.733 330.545 153.562 329.061 145.204C329.061 145.204 329.414 153.58 328.139 160.418C327.323 164.703 325.822 168.828 323.693 172.635C322.046 175.673 320.061 178.515 317.775 181.107C317.596 181.298 315.765 183.273 313.635 185.744C313.114 186.342 312.564 187 311.935 187.754C311.229 188.615 310.457 189.602 309.584 190.805C308.339 192.52 307.16 194.281 306.047 196.088C305.401 197.135 303.51 199.402 303.546 200.832L305.509 200.94L320.414 183.338L327.834 172.27C328.092 176.195 328.265 180.311 328.319 184.607C328.385 189.626 328.283 194.407 328.062 198.93C330.311 218.406 332.444 238.129 334.458 258.1C336.92 282.518 339.13 306.607 341.088 330.367C341.506 330.343 341.922 330.291 342.333 330.211C343.29 330.011 344.209 329.659 345.056 329.17C343.276 305.582 341.332 281.748 339.221 257.669Z" fill="#DCE5F0"/>
</g>
<path d="M323.693 172.629L315.681 170.015C314.56 172.531 313.403 175.07 312.21 177.631C308.058 186.491 303.731 194.849 299.327 202.711C297.909 202.561 296.455 202.872 294.798 203.13C294.36 203.18 293.933 203.295 293.529 203.471C293.109 203.747 292.709 204.053 292.332 204.386C291.016 205.313 289.263 205.194 287.665 205.044C287.578 205.234 287.558 205.448 287.608 205.651C287.658 205.855 287.775 206.035 287.94 206.163C288.277 206.417 288.68 206.568 289.101 206.6C290.039 206.74 290.993 206.74 291.931 206.6C291.616 208.502 291.303 210.407 290.992 212.313C291.704 212.768 292.542 211.948 292.996 211.224C293.643 210.207 294.283 209.184 294.929 208.161C294.938 209.84 294.812 211.516 294.552 213.175C295.352 213.664 296.254 213.963 297.187 214.049C298.121 214.135 299.062 214.006 299.938 213.671C300.322 213.543 300.671 213.326 300.955 213.037C301.236 212.684 301.44 212.277 301.553 211.841C302.092 210.231 302.624 208.622 303.163 207.012C303.463 206.358 303.529 205.621 303.348 204.924C303.195 204.576 302.954 204.273 302.648 204.045C309.024 197.254 314.566 189.726 319.158 181.621C320.845 178.552 322.365 175.537 323.693 172.629Z" fill="#FFC895"/>
<g style="mix-blend-mode:multiply">
<path d="M294.205 166.688C294.269 165.348 294.331 164.006 294.391 162.662C286.983 169.243 280.76 177.02 273.884 184.2C271.379 186.796 268.8 189.317 266.147 191.762C263.837 193.898 261.492 195.986 259.128 198.056C258.856 198.293 258.596 198.545 258.35 198.81C264.125 194.508 270.144 189.662 276.302 184.2C279.701 181.181 282.904 178.189 285.912 175.226L286.019 175.118C286.056 175.087 286.09 175.053 286.121 175.016C287.517 173.652 288.914 172.242 290.31 170.786C291.65 169.406 292.949 168.04 294.205 166.688Z" fill="#DCE5F0"/>
</g>
<path d="M309.314 129.828C309.089 130.625 308.811 131.406 308.483 132.167C308.249 132.706 308.004 133.202 307.765 133.651C306.806 133.869 305.808 133.838 304.865 133.561C303.922 133.283 303.066 132.768 302.379 132.065L302.978 128.565C301.835 130.959 301.182 131.988 300.77 132.436C300.641 132.575 300.554 132.747 300.518 132.933C300.41 133.573 301.117 134.183 301.362 134.417C302.87 135.763 307.28 137.294 308.674 135.541C308.77 135.416 308.937 135.17 309.135 133.926C309.348 132.571 309.409 131.196 309.314 129.828Z" fill="#A54C11"/>
<path d="M272.292 344.307L270.497 343.822C256.365 314.35 247.533 282.619 244.408 250.083L255.777 250.556C257.055 282.416 262.614 313.959 272.304 344.337L272.292 344.307Z" fill="#F9FEFF"/>
<path d="M404.481 193.844C408.741 188.556 412.553 183.721 416.945 178.379C423.916 169.901 431.133 160.807 437.888 151.988C445.209 151.761 452.508 151.089 459.747 149.978C468.539 148.498 477.208 146.362 485.681 143.588C490.061 154.489 494.609 165.228 499.306 176.027C502.43 183.207 505.703 190.446 509 197.566C505.084 203.153 500.624 208.34 495.686 213.049C491.062 217.302 486.054 221.117 480.726 224.447C479.53 222.454 478.333 220.462 477.136 218.464C481.582 214.674 485.538 210.345 488.912 205.577C490.925 202.628 492.7 199.523 494.22 196.291C493.454 194.855 492.592 193.3 491.725 191.966C489.142 188.03 486.182 184.355 482.886 180.993C482.605 191.032 482.647 200.88 483.06 210.967C483.293 216.705 483.7 222.73 484.119 228.503C463.553 235.335 442.292 234.199 420.99 232.751C421.801 228.553 422.879 224.41 424.215 220.348C427.399 210.112 431.001 199.911 433.706 189.543C425.681 195.137 418.094 201.269 410.459 207.395C407.341 208.963 403.805 210.632 400.669 211.948C394.426 214.554 388.032 216.782 381.521 218.619C380.163 217.806 379.295 217.321 378.649 215.58C378.392 214.759 378.362 213.884 378.561 213.047C378.76 212.21 379.181 211.442 379.78 210.824C384.046 207.898 388.157 205.092 392.417 202.161C396.397 199.474 400.549 196.59 404.481 193.844Z" fill="#DFE9ED"/>
<g style="mix-blend-mode:multiply">
<path d="M483.156 212.816C483.156 212.218 483.084 211.554 483.06 210.967C482.683 201.024 482.605 191.128 482.899 181.196C481.872 179.621 480.735 178.122 479.494 176.709C479.746 180.332 479.768 183.967 479.56 187.592C479.41 190.117 479.087 192.588 478.925 195.113C478.549 202.402 478.643 209.708 479.207 216.986L483.156 212.816Z" fill="#DCE5F0"/>
</g>
<g style="mix-blend-mode:multiply">
<path d="M483.712 222.562L482.462 223.376C482.3 223.07 482.192 222.729 482.019 222.424C481.205 220.988 480.355 219.571 479.53 218.141L479.386 218.212C479.358 218.218 479.33 218.218 479.302 218.212C479.536 221.306 479.799 224.405 480.056 227.492C480.077 227.919 480.155 228.342 480.29 228.748C480.432 229.068 480.635 229.356 480.888 229.598C481.977 229.257 483.06 228.904 484.137 228.521C483.976 226.535 483.85 224.542 483.712 222.562Z" fill="#DCE5F0"/>
</g>
<path d="M386.152 362.016C393.297 360.676 398.85 357.039 404.606 352.791C405.33 352.252 406.06 351.72 406.318 350.858C406.481 350.146 406.367 349.397 405.999 348.765C405.631 348.133 405.037 347.665 404.337 347.454C400.382 346.257 398.084 348.525 395.511 351.157C392.187 354.596 389.062 358.221 386.152 362.016Z" fill="#474747"/>
<path d="M370.511 199.887C370.06 200.687 369.784 201.574 369.703 202.489C369.621 203.404 369.736 204.326 370.038 205.194C370.651 206.93 371.509 208.57 372.587 210.064C367.019 211.842 361.108 212.271 355.342 211.314C354.632 211.126 353.885 211.126 353.176 211.314C353.005 211.368 352.847 211.456 352.711 211.572C352.575 211.689 352.464 211.831 352.385 211.992C352.305 212.152 352.259 212.327 352.249 212.506C352.239 212.684 352.265 212.863 352.326 213.031C355.633 214.261 359.099 215.014 362.618 215.269C359.77 216.406 356.891 217.494 354.055 218.643C353.642 218.805 353.176 218.936 352.984 219.373C352.475 220.534 353.547 221.551 353.941 222.646C354.163 223.244 354.007 223.974 354.486 224.554C354.766 224.813 355.104 225.002 355.471 225.106C355.838 225.21 356.224 225.226 356.598 225.153C359.318 224.939 361.99 224.32 364.527 223.316C363.339 224.939 361.79 226.264 360.003 227.187C359.525 227.369 359.092 227.653 358.735 228.018C358.555 228.203 358.455 228.449 358.455 228.706C358.455 228.963 358.555 229.21 358.735 229.394C358.961 229.54 359.224 229.62 359.493 229.626C359.763 229.631 360.028 229.561 360.26 229.424C364.629 227.761 369.272 226.188 373.544 224.453C375.782 223.543 377.895 222.879 379.433 221.03C382.018 217.919 381.485 214.001 378.906 210.991C375.896 207.461 372.808 203.979 370.511 199.887Z" fill="#FFC895"/>
<path d="M486.83 349.087C486.031 347.544 485.024 346.116 483.838 344.846C482.462 343.47 481.349 342.65 480.068 341.334C479.47 340.735 478.836 339.999 478.273 339.311L471.769 338.713C471.452 339.569 471.134 340.406 470.823 341.274C471.495 342.078 472.227 342.83 473.013 343.523C476.971 346.698 481.777 348.633 486.83 349.087Z" fill="#474747"/>
<g style="mix-blend-mode:multiply" opacity="0.74">
<path d="M401.896 352.791C397.685 356.26 392.792 358.806 387.535 360.263C387.074 360.862 386.619 361.424 386.17 362.016C393.351 360.676 398.85 357.033 404.636 352.791C405.378 352.325 405.973 351.659 406.354 350.87C406.489 350.536 406.514 350.167 406.426 349.817C406.426 349.739 406.27 349.817 406.186 349.871C404.475 350.469 403.278 351.654 401.896 352.791Z" fill="#DCE5F0"/>
</g>
<g style="mix-blend-mode:multiply" opacity="0.75">
<path d="M483.808 344.845C482.432 343.469 481.319 342.65 480.038 341.334C479.44 340.735 478.806 339.999 478.243 339.311L475.287 339.042C475.162 339.64 475.778 340.143 476.089 340.556C477.094 341.908 477.974 343.23 478.848 344.648C479.453 345.574 479.881 346.605 480.11 347.687C482.295 348.41 484.556 348.877 486.848 349.081C486.033 347.537 485.01 346.112 483.808 344.845Z" fill="#DCE5F0"/>
</g>
<path d="M485.43 100.823C485.458 100.757 485.472 100.685 485.472 100.613C485.472 100.542 485.458 100.47 485.43 100.404C485.349 100.271 485.221 100.175 485.071 100.135C478.997 97.969 472.606 97.1015 466.473 95.1332C466.428 96.6711 466.649 98.2052 467.125 99.6682C467.32 100.341 467.675 100.957 468.16 101.463C468.707 101.924 469.34 102.274 470.021 102.492C471.14 102.941 472.355 103.378 473.438 103.814C474.521 104.251 475.622 104.712 476.25 105.609C476.769 106.474 476.991 107.484 476.885 108.487C476.885 110.377 476.592 112.077 476.55 114.033C476.55 114.524 476.31 115.828 476.813 116.199C477.316 116.57 477.866 115.948 478.129 115.601C480.445 112.848 481.941 109.618 483.347 106.387C484.136 104.569 484.831 102.712 485.43 100.823Z" fill="#9A5B38"/>
<path d="M406.013 303.713C402.985 318.431 400.226 333.628 397.803 348.585C398.377 349.318 399.09 349.93 399.901 350.387C400.712 350.844 401.606 351.136 402.53 351.247C403.529 351.343 404.538 351.229 405.49 350.912C406.442 350.594 407.317 350.081 408.059 349.404C413.444 337.953 419.009 326.412 424.688 315.159C433.143 298.407 441.903 282.002 451.053 265.65C455.959 278.228 460.074 291.1 463.373 304.192C466.272 316.246 468.484 328.455 469.997 340.759C472.004 340.769 474.007 340.593 475.981 340.233C477.016 340.047 478.111 339.736 479.141 339.449C481.301 319.598 482.731 299.872 483.174 279.854C483.551 262.617 483.299 245.034 482.575 227.749C473.115 227.184 463.627 227.256 454.176 227.965C443.785 228.887 433.472 230.551 423.318 232.942C416.64 256.359 410.931 279.794 406.013 303.713Z" fill="#C0CBCE"/>
<g style="mix-blend-mode:multiply" opacity="0.75">
<path d="M479.129 339.419C481.301 319.562 482.719 299.848 483.162 279.824C483.551 262.581 483.275 245.004 482.563 227.719C477.555 227.39 472.546 227.288 467.544 227.306C465.988 228.419 464.839 229.412 463.319 230.657C459.197 234.043 454.84 236.316 451.436 240.905C450.32 242.698 449.529 244.672 449.096 246.739C450.011 248.354 450.993 249.838 451.938 251.393C460.25 248.091 468.549 244.746 476.861 241.444C477.878 255.85 478.453 270.592 478.309 284.969C478.073 303.509 476.818 322.022 474.551 340.424C475.006 340.34 475.502 340.274 475.963 340.185C477.022 339.993 478.076 339.724 479.129 339.419Z" fill="#DCE5F0"/>
</g>
<path d="M468.346 99.8058C466.515 103.671 464.702 107.583 462.961 111.472C460.878 116.207 458.884 120.965 456.977 125.747C458.879 126.212 460.824 126.475 462.781 126.531C464.508 126.55 466.234 126.404 467.933 126.094C466.76 131.736 465.03 137.247 462.769 142.547C461.352 145.737 459.717 148.826 457.874 151.791C459.855 153.651 460.304 155.38 463.792 155.488C467.658 155.602 471.356 151.803 471.894 147.549C472.796 139.034 474.166 130.575 475.999 122.212C477.256 116.636 478.913 110.934 480.637 105.46C478.312 105.4 476.023 104.868 473.91 103.896C471.797 102.924 469.904 101.533 468.346 99.8058Z" fill="#FFC895"/>
<g style="mix-blend-mode:multiply">
<path d="M485.089 100.135C483.225 99.4178 481.319 98.8184 479.38 98.34C479.717 98.915 479.934 99.5518 480.02 100.213C480.082 100.968 479.991 101.727 479.754 102.447C479.516 103.166 479.137 103.83 478.638 104.401C478.351 104.748 477.968 105.142 477.8 105.406C477.583 105.836 477.447 106.302 477.399 106.782C476.669 111.215 474.928 115.702 473.51 119.711C473.049 121.021 472.912 121.26 472.517 122.403C470.423 123.444 468.23 124.272 465.97 124.874C463.031 125.568 460.013 125.867 456.995 125.765C458.893 126.224 460.835 126.484 462.787 126.543C464.506 126.565 466.224 126.421 467.915 126.112C469.495 125.831 470.716 125.568 472.223 125.293C471.811 128.511 471.463 131.826 471.32 135.045C471.115 139.797 471.177 144.557 471.505 149.302C471.505 149.272 471.571 149.302 471.583 149.302C471.764 148.732 471.896 148.147 471.978 147.555C472.85 139.047 474.205 130.596 476.035 122.241C476.454 120.357 477.016 118.191 477.513 116.259C477.761 116.1 477.986 115.909 478.183 115.69C480.475 112.92 481.989 109.707 483.389 106.471C484.175 104.633 484.864 102.756 485.454 100.847C485.482 100.781 485.496 100.709 485.496 100.637C485.496 100.565 485.482 100.494 485.454 100.428C485.416 100.357 485.364 100.295 485.301 100.244C485.238 100.194 485.166 100.157 485.089 100.135Z" fill="#DCE5F0"/>
</g>
<path d="M480.517 113.973C481.957 113.345 483.497 112.977 485.065 112.884C485.197 112.876 485.329 112.909 485.442 112.98C485.52 113.064 485.484 113.267 485.478 113.345C485.292 115.69 483.563 118.185 482.115 119.328C479.775 121.171 478.524 121.524 475.987 122.253C476.249 120.711 476.593 119.183 477.017 117.677C477.22 116.989 477.465 116.277 477.705 115.595C478.607 114.995 479.546 114.453 480.517 113.973Z" fill="#FFC895"/>
<path d="M473.612 111.281C472.116 110.354 470.285 110.084 468.507 109.648C466.696 109.239 464.859 108.957 463.008 108.804C462.171 108.726 461.255 108.654 460.316 108.613C459.376 108.571 457.808 108.242 457.288 109.42C456.767 110.599 456.689 113.01 457.701 113.913C458.359 114.512 459.436 114.135 460.154 114.153C461.201 114.197 462.249 114.103 463.272 113.872C463.55 113.845 463.81 113.724 464.011 113.53C464.211 113.335 464.338 113.078 464.373 112.801C464.609 111.817 464.775 110.817 464.869 109.809C465.689 109.929 466.533 110.078 467.335 110.252C466.838 111.401 466.036 112.645 466.305 113.943C466.575 115.242 468.1 115.624 469.19 116.025C470.279 116.426 471.356 117.036 472.427 116.504C473.498 115.972 473.905 114.362 474.222 113.375C474.539 112.388 474.533 111.879 473.612 111.281ZM463.732 111.442C463.649 111.79 463.732 112.561 463.415 112.807C462.506 113.566 460.657 113.327 459.711 113.261C457.952 113.13 458.054 111.999 458.054 110.665C458.024 110.255 458.136 109.847 458.371 109.51C458.467 109.396 458.676 109.408 458.832 109.396C459.31 109.396 459.825 109.396 460.328 109.396C461.59 109.432 462.877 109.552 464.133 109.701H464.169C464.002 110.288 463.858 110.844 463.732 111.442ZM473.211 113.459C473.05 114.105 472.765 114.715 472.373 115.254C471.589 115.894 470.979 115.69 470.063 115.403C469.148 115.116 467.466 114.715 467.275 113.572C467.083 112.43 467.873 111.472 468.208 110.461C469.058 110.665 469.806 110.862 470.638 111.113C471.133 111.245 471.621 111.405 472.098 111.592C472.401 111.69 472.677 111.859 472.901 112.084C473.126 112.31 473.294 112.587 473.39 112.89C473.432 113.076 473.294 113.124 473.211 113.459Z" fill="#0071AF"/>
<path d="M464.72 154.357C464.361 154.576 463.992 154.775 463.613 154.956C462.856 153.835 462.232 152.63 461.752 151.366C461.083 149.501 460.725 147.538 460.693 145.557C459.466 146.963 458.245 148.345 457.001 149.745C456.457 151.623 456.022 153.53 455.696 155.458C454.14 168.327 456.025 179.497 460.824 191.433C467.392 182.071 472.08 171.524 474.629 160.376C475.616 156.128 476.005 150.941 476.215 146.466C475.138 145.269 474.079 144.151 473.007 142.984C471.32 147.776 468.92 151.396 464.72 154.357Z" fill="#9BC5FF"/>
<path d="M456.127 187.861C449.778 190.655 443.633 193.545 437.577 196.949C431.012 200.54 424.647 204.486 418.513 208.771C421.289 212.744 426.322 220.139 428.595 223.513C435.178 233.241 440.21 240.702 446.385 249.892C456.217 245.704 466.132 241.695 475.981 237.507C473.043 228.629 469.938 219.864 466.467 211.183C463.296 203.249 459.777 195.507 456.127 187.861Z" fill="#0071AF"/>
<path d="M474.749 216.394C473.061 215.616 470.207 214.79 469.585 212.714C469.472 212.25 469.269 211.813 468.986 211.428C468.765 211.153 468.196 210.776 467.79 211.021C467.607 211.133 467.456 211.289 467.351 211.475C467.247 211.662 467.192 211.872 467.191 212.086C467.041 213.308 467.206 214.548 467.67 215.688C468.134 216.828 468.881 217.831 469.842 218.601C465.651 221.092 461.172 223.063 456.504 224.47C456.453 224.864 456.546 225.262 456.766 225.592C456.986 225.922 457.318 226.162 457.701 226.265C458.494 226.431 459.315 226.402 460.094 226.182C459.047 226.541 457.102 227.258 457.102 228.539C457.102 229.053 457.192 229.083 457.701 229.358C458.209 229.634 459.34 229.143 460.046 228.814C460.268 228.706 461.387 228.27 461.716 228.12C460.83 228.533 458.898 229.843 459.149 230.908C459.31 231.608 459.55 231.434 460.094 231.662C460.639 231.889 461.59 231.434 462.267 231.201C462.548 231.105 462.961 230.908 463.421 230.746C464.238 230.475 465.072 230.255 465.917 230.088L468.579 229.49C467.862 230.257 466.986 230.86 466.012 231.255C465.079 231.62 464.343 231.782 463.667 232.517C463.511 232.685 463.02 232.9 463.326 233.295C463.631 233.69 465.121 233.403 465.719 233.253C466.916 232.966 467.407 232.882 468.831 232.458C472.858 231.261 476.55 229.508 479.602 226.176C480.548 225.04 481.352 223.792 481.995 222.46C480.954 220.665 479.901 218.87 478.848 217.046C477.487 216.822 476.121 216.605 474.749 216.394Z" fill="#FFC895"/>
<g style="mix-blend-mode:multiply">
<path d="M499.306 176.033C494.651 165.264 490.109 154.657 485.765 143.792C485.166 144.671 485.316 145.497 485.28 146.658C485.208 148.71 486.022 153.029 486.441 154.722C487.201 157.828 489.397 162.787 490.229 164.534C494.806 174.107 497.978 181.885 501.897 191.218C502.639 192.983 503.591 195.31 504.357 197.201C498.331 206.619 490.457 214.718 481.211 221.006C481.445 221.431 481.81 222 482.013 222.394C482.216 222.789 482.288 222.993 482.468 223.37C482.905 223.065 483.27 222.861 483.73 222.544C487.953 219.691 491.954 216.523 495.698 213.067C500.641 208.355 505.105 203.164 509.024 197.572C505.745 190.44 502.418 183.219 499.306 176.033Z" fill="#DCE5F0"/>
</g>
<g style="mix-blend-mode:multiply">
<path d="M383.226 218.165C389.152 216.421 394.977 214.352 400.675 211.966C403.84 210.632 407.335 208.975 410.471 207.413C418.106 201.287 425.693 195.155 433.718 189.561C434.137 187.766 434.579 185.971 434.914 184.128C431.773 186.461 428.26 189.016 425.28 191.415C419.722 195.89 414.671 200.348 409.447 205.086C403.799 208.191 398 211.159 392.208 213.977C389.21 215.448 386.272 216.789 383.226 218.165Z" fill="#DCE5F0"/>
</g>
<path d="M432.994 118.754C432.547 116.193 432.102 113.632 431.659 111.072L451.137 118.191L432.994 118.754Z" fill="#FFEF6E"/>
<path d="M441.018 107.895L445.769 105.699L453.087 114.823L441.018 107.895Z" fill="#FFEF6E"/>
<path d="M442.484 131.563C441.917 129.7 441.347 127.839 440.772 125.981L453.249 122.756L442.484 131.563Z" fill="#FFEF6E"/>
<g style="mix-blend-mode:multiply" opacity="0.74">
<path d="M408.059 349.398C413.445 337.959 419.003 326.412 424.688 315.159C433.143 298.407 441.904 282.002 451.047 265.65C451.047 265.74 451.107 265.812 451.137 265.896C450.012 262.948 448.843 260.019 447.63 257.107C430.366 287.183 415.739 318.696 403.912 351.295C405.451 351.086 406.894 350.426 408.059 349.398Z" fill="#DCE5F0"/>
</g>
<path d="M460.824 191.451C461.955 189.896 463.026 188.304 464.061 186.665C464.133 177.954 464.175 169.245 464.187 160.538L465.426 158.976L463.577 155.566L461.297 158.162L462.296 160.227C461.099 168.794 459.889 177.359 458.664 185.923C459.322 187.796 460.052 189.656 460.824 191.451Z" fill="#0071AF"/>
<path d="M376.495 102.767C378.378 72.8531 378.536 42.8552 376.967 12.9229C361.721 14.8892 346.139 17.1069 330.222 19.5758C303.666 23.7159 281.538 27.886 281.538 27.886C281.538 27.886 303.678 24.2963 336.343 19.9886C351.65 17.9784 364.282 16.5006 372.785 15.5493C374.179 47.3618 373.871 79.2261 371.863 111.006C370.511 132.819 368.398 153.466 365.795 172.904C366.831 172.856 367.872 172.815 368.907 172.761C372.186 151.605 374.915 128.182 376.495 102.767Z" fill="url(#paint3_linear_17_2)"/>
<path d="M164.805 54.8986C164.805 55.6387 164.586 56.3621 164.174 56.9773C163.763 57.5924 163.178 58.0717 162.494 58.3544C161.81 58.637 161.057 58.7104 160.332 58.5651C159.606 58.4199 158.939 58.0626 158.417 57.5384C157.894 57.0143 157.539 56.3469 157.396 55.6207C157.253 54.8946 157.329 54.1424 157.614 53.4593C157.899 52.7763 158.38 52.1931 158.997 51.7837C159.613 51.3742 160.337 51.157 161.078 51.1593C162.067 51.1625 163.016 51.5578 163.714 52.2588C164.413 52.9597 164.805 53.909 164.805 54.8986Z" fill="#FFFFFE"/>
<path d="M161.072 65.201C166.762 65.201 171.376 60.5884 171.376 54.8985C171.376 49.2086 166.762 44.5961 161.072 44.5961C155.381 44.5961 150.768 49.2086 150.768 54.8985C150.768 60.5884 155.381 65.201 161.072 65.201Z" fill="url(#paint4_radial_17_2)"/>
<path d="M186.952 52.4875C189.202 52.4875 191.027 50.6634 191.027 48.4132C191.027 46.163 189.202 44.3389 186.952 44.3389C184.701 44.3389 182.877 46.163 182.877 48.4132C182.877 50.6634 184.701 52.4875 186.952 52.4875Z" fill="#FFFFFE"/>
<path d="M186.951 59.649C193.158 59.649 198.189 54.6185 198.189 48.4132C198.189 42.2078 193.158 37.1774 186.951 37.1774C180.745 37.1774 175.714 42.2078 175.714 48.4132C175.714 54.6185 180.745 59.649 186.951 59.649Z" fill="url(#paint5_radial_17_2)"/>
<path d="M221.249 41.5034C221.81 39.1301 220.34 36.7521 217.966 36.1919C215.592 35.6318 213.214 37.1016 212.654 39.4749C212.093 41.8483 213.563 44.2263 215.937 44.7865C218.311 45.3466 220.689 43.8768 221.249 41.5034Z" fill="#FFFFFE"/>
<path d="M228.815 43.2887C230.361 36.7379 226.303 30.1741 219.751 28.628C213.2 27.0819 206.635 31.139 205.089 37.6897C203.542 44.2405 207.6 50.8043 214.152 52.3504C220.703 53.8965 227.268 49.8394 228.815 43.2887Z" fill="url(#paint6_radial_17_2)"/>
<path d="M254.455 37.3509C257.102 37.3509 259.248 35.2053 259.248 32.5586C259.248 29.9119 257.102 27.7664 254.455 27.7664C251.808 27.7664 249.662 29.9119 249.662 32.5586C249.662 35.2053 251.808 37.3509 254.455 37.3509Z" fill="#FFFFFE"/>
<path d="M263.801 41.9053C268.963 36.7441 268.963 28.3761 263.801 23.2148C258.639 18.0536 250.27 18.0536 245.108 23.2149C239.946 28.3761 239.946 36.744 245.108 41.9053C250.27 47.0665 258.639 47.0665 263.801 41.9053Z" fill="url(#paint7_radial_17_2)"/>
<path d="M303.821 25.703C304.306 22.7154 302.277 19.9004 299.289 19.4154C296.301 18.9305 293.485 20.9593 293 23.9468C292.515 26.9344 294.544 29.7495 297.532 30.2344C300.52 30.7194 303.336 28.6906 303.821 25.703Z" fill="#FFFFFE"/>
<path d="M313.342 27.2482C314.681 19.003 309.081 11.2339 300.834 9.89556C292.588 8.55717 284.818 14.1562 283.479 22.4014C282.14 30.6466 287.74 38.4157 295.987 39.754C304.233 41.0924 312.004 35.4934 313.342 27.2482Z" fill="url(#paint8_radial_17_2)"/>
<path d="M355.223 18.7345C356.019 15.3642 353.931 11.9873 350.561 11.1918C347.19 10.3964 343.812 12.4837 343.017 15.8539C342.221 19.2242 344.309 22.6011 347.68 23.3966C351.05 24.192 354.428 22.1047 355.223 18.7345Z" fill="#FFFFFE"/>
<path d="M355.758 33.2734C364.585 29.6178 368.776 19.5 365.12 10.6746C361.464 1.84916 351.345 -2.3418 342.518 1.3138C333.691 4.9694 329.499 15.0873 333.156 23.9127C336.812 32.7381 346.931 36.929 355.758 33.2734Z" fill="url(#paint9_radial_17_2)"/>
<path d="M154.172 80.918C156.01 80.918 157.499 79.4286 157.499 77.5915C157.499 75.7543 156.01 74.265 154.172 74.265C152.335 74.265 150.845 75.7543 150.845 77.5915C150.845 79.4286 152.335 80.918 154.172 80.918Z" fill="#FFFFFE"/>
<path d="M163.108 79.6974C164.273 74.7611 161.215 69.8149 156.278 68.6498C151.341 67.4847 146.394 70.5419 145.229 75.4783C144.064 80.4147 147.121 85.3609 152.058 86.526C156.996 87.6911 161.943 84.6338 163.108 79.6974Z" fill="url(#paint10_radial_17_2)"/>
<path d="M162.22 110.994C162.22 111.653 162.025 112.297 161.659 112.845C161.292 113.393 160.772 113.82 160.163 114.072C159.554 114.325 158.884 114.391 158.237 114.262C157.591 114.134 156.997 113.816 156.531 113.35C156.065 112.884 155.747 112.29 155.618 111.644C155.49 110.997 155.556 110.327 155.808 109.718C156.06 109.11 156.488 108.589 157.036 108.223C157.584 107.857 158.228 107.661 158.887 107.661C159.325 107.66 159.759 107.746 160.164 107.913C160.569 108.081 160.936 108.326 161.246 108.636C161.556 108.945 161.801 109.313 161.968 109.718C162.136 110.122 162.221 110.556 162.22 110.994Z" fill="#FFFFFE"/>
<path d="M165.382 117.491C168.969 113.905 168.969 108.09 165.382 104.504C161.795 100.917 155.979 100.917 152.392 104.504C148.805 108.09 148.805 113.905 152.392 117.491C155.979 121.078 161.795 121.078 165.382 117.491Z" fill="url(#paint11_radial_17_2)"/>
<path d="M157.44 153.867C159.277 153.867 160.767 152.377 160.767 150.54C160.767 148.703 159.277 147.214 157.44 147.214C155.602 147.214 154.113 148.703 154.113 150.54C154.113 152.377 155.602 153.867 157.44 153.867Z" fill="#FFFFFE"/>
<path d="M160.952 159.025C165.638 157.084 167.864 151.711 165.923 147.026C163.981 142.34 158.608 140.114 153.922 142.055C149.235 143.996 147.01 149.369 148.951 154.054C150.892 158.74 156.265 160.966 160.952 159.025Z" fill="url(#paint12_radial_17_2)"/>
<path d="M369.625 54.6831C373.088 54.6831 375.896 51.8759 375.896 48.4131C375.896 44.9502 373.088 42.1431 369.625 42.1431C366.162 42.1431 363.354 44.9502 363.354 48.4131C363.354 51.8759 366.162 54.6831 369.625 54.6831Z" fill="#FFFFFE"/>
<path d="M369.625 65.7095C379.179 65.7095 386.924 57.9657 386.924 48.4131C386.924 38.8606 379.179 31.1167 369.625 31.1167C360.071 31.1167 352.326 38.8606 352.326 48.4131C352.326 57.9657 360.071 65.7095 369.625 65.7095Z" fill="url(#paint13_radial_17_2)"/>
<path d="M373.078 103.311C375.527 100.862 375.527 96.8924 373.078 94.4438C370.629 91.9952 366.658 91.9951 364.209 94.4437C361.76 96.8923 361.76 100.862 364.209 103.311C366.658 105.76 370.629 105.76 373.078 103.311Z" fill="#FFFFFE"/>
<path d="M368.644 116.175C378.198 116.175 385.943 108.431 385.943 98.8785C385.943 89.3259 378.198 81.582 368.644 81.582C359.09 81.582 351.345 89.3259 351.345 98.8785C351.345 108.431 359.09 116.175 368.644 116.175Z" fill="url(#paint14_radial_17_2)"/>
<path d="M369.059 152.445C369.855 149.075 367.767 145.698 364.396 144.903C361.025 144.107 357.648 146.195 356.852 149.565C356.057 152.935 358.144 156.312 361.515 157.108C364.886 157.903 368.264 155.816 369.059 152.445Z" fill="#FFFFFE"/>
<path d="M369.583 166.998C378.41 163.342 382.602 153.224 378.946 144.399C375.289 135.574 365.17 131.383 356.343 135.038C347.516 138.694 343.325 148.812 346.981 157.637C350.637 166.462 360.757 170.653 369.583 166.998Z" fill="url(#paint15_radial_17_2)"/>
</g>
<defs>
<linearGradient id="paint0_linear_17_2" x1="149.319" y1="94.0203" x2="377.805" y2="94.0203" gradientUnits="userSpaceOnUse">
<stop stop-color="#7652CC"/>
<stop offset="1" stop-color="#5A439E"/>
</linearGradient>
<linearGradient id="paint1_linear_17_2" x1="156.35" y1="111.036" x2="173.027" y2="111.036" gradientUnits="userSpaceOnUse">
<stop stop-color="#F2DAFF"/>
<stop offset="1" stop-color="#EBCEFF"/>
</linearGradient>
<linearGradient id="paint2_linear_17_2" x1="113.087" y1="94.3076" x2="428.667" y2="94.3076" gradientUnits="userSpaceOnUse">
<stop stop-color="#D1ADEC"/>
<stop offset="1" stop-color="#839FD0"/>
</linearGradient>
<linearGradient id="paint3_linear_17_2" x1="38914.9" y1="24859.6" x2="54477.2" y2="24859.6" gradientUnits="userSpaceOnUse">
<stop stop-color="#F2DAFF"/>
<stop offset="1" stop-color="#EBCEFF"/>
</linearGradient>
<radialGradient id="paint4_radial_17_2" cx="0" cy="0" r="1" gradientUnits="userSpaceOnUse" gradientTransform="translate(161.072 54.8985) scale(10.3819 10.3802)">
<stop stop-color="white"/>
<stop offset="1" stop-color="#F5CC83"/>
</radialGradient>
<radialGradient id="paint5_radial_17_2" cx="0" cy="0" r="1" gradientUnits="userSpaceOnUse" gradientTransform="translate(5620.09 1855.58) scale(425.454 425.387)">
<stop stop-color="white"/>
<stop offset="1" stop-color="#F5CC83"/>
</radialGradient>
<radialGradient id="paint6_radial_17_2" cx="0" cy="0" r="1" gradientUnits="userSpaceOnUse" gradientTransform="translate(7332.64 1677.95) scale(500.48 500.401)">
<stop stop-color="white"/>
<stop offset="1" stop-color="#F5CC83"/>
</radialGradient>
<radialGradient id="paint7_radial_17_2" cx="0" cy="0" r="1" gradientUnits="userSpaceOnUse" gradientTransform="translate(9627.49 1457.79) scale(588.475 588.382)">
<stop stop-color="white"/>
<stop offset="1" stop-color="#F5CC83"/>
</radialGradient>
<radialGradient id="paint8_radial_17_2" cx="0" cy="0" r="1" gradientUnits="userSpaceOnUse" gradientTransform="translate(13246.6 1264.73) scale(770.572 770.45)">
<stop stop-color="white"/>
<stop offset="1" stop-color="#F5CC83"/>
</radialGradient>
<radialGradient id="paint9_radial_17_2" cx="0" cy="0" r="1" gradientUnits="userSpaceOnUse" gradientTransform="translate(18090.5 1000.08) scale(1008.2 1008.04)">
<stop stop-color="white"/>
<stop offset="1" stop-color="#F5CC83"/>
</radialGradient>
<radialGradient id="paint10_radial_17_2" cx="0" cy="0" r="1" gradientUnits="userSpaceOnUse" gradientTransform="translate(3588.67 2450.47) scale(284.188 284.143)">
<stop stop-color="white"/>
<stop offset="1" stop-color="#F5CC83"/>
</radialGradient>
<radialGradient id="paint11_radial_17_2" cx="0" cy="0" r="1" gradientUnits="userSpaceOnUse" gradientTransform="translate(3738.15 3509.32) scale(284.188 284.143)">
<stop stop-color="white"/>
<stop offset="1" stop-color="#F5CC83"/>
</radialGradient>
<radialGradient id="paint12_radial_17_2" cx="0" cy="0" r="1" gradientUnits="userSpaceOnUse" gradientTransform="translate(3692.24 4762.95) scale(284.188 284.143)">
<stop stop-color="white"/>
<stop offset="1" stop-color="#F5CC83"/>
</radialGradient>
<radialGradient id="paint13_radial_17_2" cx="0" cy="0" r="1" gradientUnits="userSpaceOnUse" gradientTransform="translate(19295.6 2830.37) scale(1008.2 1008.04)">
<stop stop-color="white"/>
<stop offset="1" stop-color="#F5CC83"/>
</radialGradient>
<radialGradient id="paint14_radial_17_2" cx="0" cy="0" r="1" gradientUnits="userSpaceOnUse" gradientTransform="translate(19237.9 5798.74) scale(1008.2 1008.04)">
<stop stop-color="white"/>
<stop offset="1" stop-color="#F5CC83"/>
</radialGradient>
<radialGradient id="paint15_radial_17_2" cx="0" cy="0" r="1" gradientUnits="userSpaceOnUse" gradientTransform="translate(18903.9 8865.64) scale(1008.2 1008.03)">
<stop stop-color="white"/>
<stop offset="1" stop-color="#F5CC83"/>
</radialGradient>
<clipPath id="clip0_17_2">
<rect width="467" height="374" fill="white" transform="translate(42)"/>
</clipPath>
</defs>
</svg>
