<svg width="130" height="27" viewBox="0 0 130 27" fill="none" xmlns="http://www.w3.org/2000/svg">
<path d="M33.36 25.3667L33.19 25.5467C32.03 25.4767 30.19 25.4367 27.77 25.4367C25.35 25.4367 23.46 25.4367 22.36 25.5467L22.2 25.3867V24.1867L22.38 24.0167C23.0663 23.9968 23.7508 23.9367 24.43 23.8367C24.5847 23.8032 24.7253 23.7228 24.8327 23.6065C24.94 23.4901 25.0089 23.3436 25.03 23.1867C25.2314 21.3774 25.3083 19.5565 25.26 17.7367V5.8567L21.34 13.8567C21.12 14.3034 20.3567 15.9434 19.05 18.7767L15.84 25.7767H14.66C14.0533 24.3234 13.2267 22.49 12.18 20.2767L9.72 15.1167L5.12 5.5367V17.7367C5.07032 19.5562 5.14382 21.3771 5.34 23.1867C5.36107 23.3436 5.42998 23.4901 5.53735 23.6065C5.64471 23.7228 5.78531 23.8032 5.94 23.8367C6.62301 23.9297 7.31082 23.9831 8 23.9967L8.17 24.1667V25.3667L8 25.5467C6.65 25.4767 5.4 25.4367 4.24 25.4367C2.89 25.4367 1.54 25.4367 0.18 25.5467L0 25.3867V24.1867L0.18 23.9967C0.866261 23.9768 1.55077 23.9167 2.23 23.8167C2.38469 23.7832 2.52529 23.7028 2.63265 23.5865C2.74002 23.4701 2.80893 23.3236 2.83 23.1667C3.0314 21.3574 3.10825 19.5365 3.06 17.7167V8.4367C3.10748 6.62024 3.03063 4.80267 2.83 2.9967C2.80757 2.84034 2.73819 2.69449 2.63105 2.57842C2.52392 2.46235 2.38406 2.38155 2.23 2.3467C2.06 2.3467 1.37 2.2467 0.23 2.1767L0 1.9967V0.796699L0.18 0.636699C1.39 0.706699 2.94 0.736699 4.8 0.736699C6.23 0.736699 7.48 0.736699 8.54 0.636699C8.93 1.5267 9.48 2.7767 10.2 4.3967L11.32 6.8167L16.91 18.5067L19.6 13.0567L23.8 4.0567C24.29 2.9967 24.8 1.8467 25.24 0.616699C26.57 0.686699 27.46 0.716699 27.91 0.716699C30.21 0.716699 31.97 0.716699 33.19 0.616699L33.36 0.776699V1.9967L33.19 2.1567C31.99 2.2267 31.31 2.2867 31.13 2.3267C30.9759 2.36155 30.8361 2.44235 30.7289 2.55842C30.6218 2.67449 30.5524 2.82034 30.53 2.9767C30.3289 4.78598 30.2521 6.60691 30.3 8.4267V17.7267C30.2517 19.5465 30.3286 21.3674 30.53 23.1767C30.5511 23.3336 30.62 23.4801 30.7273 23.5965C30.8347 23.7128 30.9753 23.7932 31.13 23.8267C31.8126 23.9264 32.5004 23.9865 33.19 24.0067L33.36 24.1767V25.3667Z" fill="#1D1D1B"/>
<path d="M92 1.99672L91.82 2.16672C91.2864 2.19576 90.7588 2.29323 90.25 2.45672C89.9424 2.65673 89.6911 2.93213 89.52 3.25672C88.9549 4.3308 88.4507 5.43588 88.01 6.56672L86.76 9.56672L84.41 15.2967C82.41 20.2167 81.0433 23.6801 80.31 25.6867H77.68L69.61 6.09672C69.181 4.8485 68.5785 3.6669 67.82 2.58672C67.1579 2.24547 66.4112 2.10308 65.67 2.17672L65.5 1.99672V0.826719L65.69 0.636719C66.92 0.706719 68.47 0.736719 70.35 0.736719C72.69 0.736719 74.8233 0.703385 76.75 0.636719L76.92 0.826719V1.99672L76.76 2.16672C75.9699 2.1202 75.1783 2.22892 74.43 2.48672C74.3294 2.54918 74.2481 2.63833 74.1951 2.74426C74.1421 2.85019 74.1196 2.96874 74.13 3.08672C74.401 4.23434 74.7828 5.35292 75.27 6.42672L76.1 8.51672L80.54 19.5167L84.45 9.72672C84.6 9.34672 84.95 8.40672 85.45 6.88672C85.9701 5.65773 86.372 4.38196 86.65 3.07672C86.65 2.68672 86.52 2.45672 86.26 2.37672C85.5134 2.24876 84.7575 2.18187 84 2.17672L83.78 1.99672V0.806719L84 0.636719C85.32 0.706719 86.7 0.736719 88.13 0.736719C89.13 0.736719 90.4 0.736719 91.88 0.636719L92 0.826719V1.99672Z" fill="#1D1D1B"/>
<path d="M105.21 25.3667L105.05 25.5467C103.88 25.4767 102.05 25.4367 99.62 25.4367C97.19 25.4367 95.37 25.4367 94.2 25.5467L94 25.3667V24.1867L94.18 24.0167C94.8695 23.9959 95.5573 23.9358 96.24 23.8367C96.3942 23.8041 96.5341 23.7237 96.64 23.6071C96.7459 23.4904 96.8124 23.3433 96.83 23.1867C97.0368 21.3779 97.1136 19.5565 97.06 17.7367V8.43672C97.1261 6.62117 97.0626 4.80323 96.87 2.99672C96.8496 2.84117 96.7821 2.69557 96.6767 2.57941C96.5713 2.46324 96.4328 2.38206 96.28 2.34672C96.1 2.34672 95.41 2.24672 94.22 2.17672L94 1.99672V0.796719L94.18 0.636719C95.3 0.706719 97.11 0.736719 99.59 0.736719C102.07 0.736719 103.86 0.736719 104.99 0.636719L105.17 0.796719V1.99672L104.99 2.17672C103.79 2.24672 103.11 2.30672 102.93 2.34672C102.776 2.37935 102.636 2.45971 102.53 2.57638C102.424 2.69306 102.358 2.84013 102.34 2.99672C102.134 4.80558 102.057 6.62689 102.11 8.44672V17.7467C102.056 19.5665 102.133 21.3879 102.34 23.1967C102.356 23.3538 102.422 23.5017 102.528 23.6187C102.634 23.7356 102.775 23.8155 102.93 23.8467C103.617 23.9367 104.308 23.9868 105 23.9967L105.18 24.1667L105.21 25.3667Z" fill="#1D1D1B"/>
<path d="M129.15 19.3367C128.903 21.4634 128.713 23.4801 128.58 25.3867L128.41 25.5467C123.59 25.4467 119.94 25.3967 117.41 25.3967C115.576 25.3967 112.336 25.4467 107.69 25.5467L107.51 25.3867V24.1567C108.38 23.0667 109.7 21.2567 111.51 18.7267L114.07 15.0667L117.36 10.2267C118.446 8.64005 120.076 6.17339 122.25 2.82672H117.83C115.882 2.76713 113.933 2.8574 112 3.09672C111.84 3.14427 111.695 3.23456 111.583 3.35789C111.47 3.48121 111.393 3.63292 111.36 3.79672C111.36 3.94672 111.22 4.49672 111.06 5.43672L110.92 6.30672L110.73 6.48672H109.66L109.48 6.27672C109.56 5.03672 109.6 3.91672 109.6 2.91672C109.6 2.60672 109.6 1.91672 109.6 0.806719L109.78 0.636719C111.373 0.703385 114.923 0.736719 120.43 0.736719C121.763 0.736719 124.593 0.703385 128.92 0.636719L129.09 0.806719V1.86672L127.65 3.86672C126.14 5.95672 124.84 7.78672 123.75 9.38672L118.48 16.9967C117.89 17.8467 116.48 19.9467 114.38 23.2867C115 23.2867 115.95 23.2867 117.21 23.2867C123.15 23.2867 126.32 23.1167 126.7 22.7867C127.138 21.9459 127.413 21.0298 127.51 20.0867C127.58 19.7467 127.65 19.4667 127.71 19.2367L127.9 19.0667H128.9L129.15 19.3367Z" fill="#1D1D1B"/>
<path d="M50.4898 1.04674H50.5798L52.3998 0.13674C49.7085 -0.253372 46.9623 0.196022 44.5357 1.42365C42.109 2.65129 40.12 4.59742 38.8398 6.99674L40.6598 5.99674C41.7954 4.45858 43.2768 3.20909 44.9844 2.3492C46.692 1.48931 48.578 1.04314 50.4898 1.04674Z" fill="#E0A660"/>
<path d="M40.6602 5.99683L38.8402 6.99683C38.6902 7.27683 38.5402 7.56683 38.4102 7.85683H39.5602C39.8681 7.20392 40.2364 6.58122 40.6602 5.99683Z" fill="#BE647B"/>
<path d="M52.9201 1.28672L53.7701 0.406719C53.3198 0.286985 52.8621 0.196793 52.4001 0.136719L50.5801 1.04672C51.3658 1.05523 52.149 1.13557 52.9201 1.28672Z" fill="#BE647B"/>
<path d="M47.46 6.99683C47.1457 7.04424 46.848 7.16854 46.5933 7.3587C46.3386 7.54885 46.1348 7.79897 46 8.08683H46.41L47.46 6.99683Z" fill="#BE647B"/>
<path d="M39.56 7.85669H38.41L38.23 8.28669L39.23 8.73669C39.3 8.41669 39.42 8.12669 39.56 7.85669Z" fill="#D0855F"/>
<path d="M46.4001 8.10669H45.9901C45.8837 8.35644 45.8293 8.62523 45.8301 8.89669V11.8967L47.4201 12.6467L46.4001 8.10669Z" fill="#D0855F"/>
<path d="M45.8301 11.8367V13.0267L47.4201 12.5867L45.8301 11.8367Z" fill="#E2B36B"/>
<path d="M38.2998 13.2368C38.3018 11.6813 38.6005 10.1404 39.1798 8.69683L38.1798 8.24683C37.2615 10.4903 36.9812 12.944 37.3698 15.3368L38.3698 15.0568C38.3007 14.4528 38.2773 13.8444 38.2998 13.2368Z" fill="#E2B36B"/>
<path d="M45.8301 13.0267V14.8667L47.4201 12.5867L45.8301 13.0267Z" fill="#D0855F"/>
<path d="M38.4399 15.0566L37.4399 15.3366C37.8518 17.8909 39.0025 20.2687 40.7499 22.1766L41.3599 21.2866C39.8052 19.5357 38.791 17.3718 38.4399 15.0566Z" fill="#D0855F"/>
<path d="M47.4199 12.5866L52.3399 17.1266L52.4499 17.0666L54.0499 16.1366L55.3899 11.1166L53.0899 9.78662L47.4199 12.5866Z" fill="#BB668B"/>
<path d="M47.4199 12.5867L53.0899 9.78669L52.4499 9.41669L50.2999 8.17669L46.3999 8.10669L47.4199 12.5867Z" fill="#B86F93"/>
<path d="M55.7699 2.24674L55.6999 1.05674C55.0731 0.7939 54.4281 0.576668 53.7699 0.406738L52.9199 1.28674C53.9064 1.48596 54.8639 1.80849 55.7699 2.24674Z" fill="#A8668F"/>
<path d="M50.2999 8.17678L48.6699 7.22678C48.3038 7.01642 47.8776 6.9354 47.4599 6.99678L46.3999 8.10678L50.2999 8.17678Z" fill="#A8668F"/>
<path d="M62.0002 9.21664L63.1702 9.40664C62.6087 7.5546 61.6492 5.84767 60.3589 4.40532C59.0685 2.96298 57.4785 1.82008 55.7002 1.05664L55.7702 2.24664C57.2162 2.94134 58.5108 3.91463 59.5799 5.11069C60.649 6.30675 61.4715 7.70207 62.0002 9.21664Z" fill="#805D86"/>
<path d="M56.2298 14.8767C56.5161 14.7092 56.7536 14.4697 56.9186 14.182C57.0836 13.8943 57.1704 13.5684 57.1704 13.2367C57.1704 12.905 57.0836 12.5791 56.9186 12.2914C56.7536 12.0037 56.5161 11.7642 56.2298 11.5967L55.3898 11.1167L54.0498 16.1167L56.2298 14.8767Z" fill="#745A81"/>
<path d="M62.68 13.2368V13.5468L63.68 13.0068C63.6632 11.7865 63.4747 10.5746 63.12 9.4068L62 9.2168C62.4513 10.509 62.6812 11.8681 62.68 13.2368Z" fill="#745A81"/>
<path d="M41.34 21.2866L40.73 22.1766C41.1536 22.6369 41.608 23.0679 42.09 23.4666L43.16 22.9966C42.4984 22.488 41.8888 21.9152 41.34 21.2866Z" fill="#E7C162"/>
<path d="M45.8301 14.8667V17.5967C45.8303 17.9291 45.9177 18.2557 46.0836 18.5438C46.2495 18.8318 46.4882 19.0713 46.7756 19.2383C47.0631 19.4053 47.3893 19.494 47.7217 19.4955C48.0542 19.4969 48.3812 19.4111 48.6701 19.2467L52.3401 17.1267L47.4201 12.5867L45.8301 14.8667Z" fill="#E7C162"/>
<path d="M50.4898 25.4268C47.8469 25.4377 45.2729 24.5844 43.1598 22.9968L42.0898 23.4868C44.4565 25.4319 47.4264 26.4926 50.4898 26.4868C50.7898 26.4868 51.0898 26.4868 51.3798 26.4868L51.6598 25.4068C51.2704 25.4337 50.8799 25.4404 50.4898 25.4268Z" fill="#EED769"/>
<path d="M51.6599 25.3668L51.3799 26.4468C54.2846 26.2561 57.0446 25.1099 59.2299 23.1868L58.4199 22.4868C56.5231 24.1301 54.1589 25.1373 51.6599 25.3668Z" fill="#AD6254"/>
<path d="M63.7302 12.9968L62.7302 13.5368C62.6896 15.2429 62.2891 16.9212 61.555 18.4618C60.8209 20.0024 59.7697 21.3706 58.4702 22.4768L59.2802 23.1768C60.705 21.9308 61.8451 20.3929 62.6232 18.6675C63.4014 16.9421 63.7994 15.0696 63.7902 13.1768C63.7402 13.1568 63.7302 13.0868 63.7302 12.9968Z" fill="#AD637F"/>
</svg>
