<svg width="35" height="35" viewBox="0 0 35 35" fill="none" xmlns="http://www.w3.org/2000/svg">
<g clip-path="url(#clip0_10_80)">
<path d="M17.5027 1.38948H17.6118L20.0192 0.179615C16.4669 -0.335706 12.8421 0.252881 9.63542 1.8657C6.42873 3.47852 3.79502 6.03769 2.09082 9.19676L4.4998 7.98383C5.9949 5.93851 7.9519 4.27518 10.2114 3.12927C12.471 1.98335 14.9692 1.38724 17.5027 1.38948Z" fill="white"/>
<path d="M4.49993 7.98389L2.09096 9.19682C1.89136 9.56837 1.70609 9.94658 1.53516 10.3314L3.04748 10.3867C3.46067 9.54497 3.94667 8.74096 4.49993 7.98389Z" fill="white"/>
<path d="M20.7042 1.70883L21.8234 0.538891C21.2279 0.387395 20.6247 0.267977 20.0163 0.181152L17.6089 1.39101C18.6485 1.39726 19.685 1.50369 20.7042 1.70883Z" fill="white"/>
<path d="M13.491 9.24744C13.0721 9.30692 12.6749 9.47067 12.3358 9.72364C11.9967 9.97662 11.7266 10.3107 11.5503 10.6953L12.0861 10.7152L13.491 9.24744Z" fill="white"/>
<path d="M3.04307 10.3867L1.53535 10.3314C1.4463 10.5218 1.36492 10.7122 1.28662 10.901L2.54715 11.4968C2.69915 11.1221 2.86343 10.7475 3.04307 10.3867Z" fill="white"/>
<path d="M12.086 10.7153L11.5502 10.6953C11.4032 11.021 11.3278 11.3744 11.3291 11.7317V15.6438L13.431 16.6356L12.086 10.7153Z" fill="white"/>
<path d="M11.3291 15.6437V17.2159L13.431 16.6355L11.3291 15.6437Z" fill="white"/>
<path d="M1.38928 17.503C1.38771 15.4478 1.78071 13.4114 2.54694 11.5044L1.28642 10.901C0.0817261 13.8667 -0.2899 17.1052 0.211666 20.2667L1.55971 19.8951C1.4443 19.103 1.38734 18.3035 1.38928 17.503Z" fill="white"/>
<path d="M11.3291 17.216V19.6495L13.431 16.6356L11.3291 17.216Z" fill="white"/>
<path d="M1.56728 19.9028L0.219238 20.2744C0.759347 23.6494 2.27815 26.7916 4.58733 29.3115L5.40567 28.1385C3.35945 25.8204 2.02653 22.9605 1.56728 19.9028Z" fill="white"/>
<path d="M13.4312 16.6356L19.9334 22.6404L20.0823 22.5544L22.1919 21.3353L23.9744 14.6934L20.936 12.9385L13.4312 16.6356Z" fill="white"/>
<path d="M13.4309 16.6356L20.9357 12.9384L20.0821 12.4456L17.2447 10.8073L12.0859 10.7152L13.4309 16.6356Z" fill="white"/>
<path d="M24.4719 2.97248L24.3721 1.40181C23.5462 1.04836 22.6941 0.759864 21.8234 0.53894L20.7041 1.70888C22.0078 1.97142 23.2735 2.39591 24.4719 2.97248Z" fill="white"/>
<path d="M17.2447 10.8073L15.086 9.56213C14.6052 9.27975 14.0428 9.16879 13.4908 9.24738L12.0859 10.7152L17.2447 10.8073Z" fill="white"/>
<path d="M32.7106 12.1892L34.2552 12.4363C33.5118 9.98778 32.2421 7.73138 30.5349 5.82524C28.8276 3.9191 26.7242 2.40933 24.3721 1.40173L24.4719 2.9724C28.3306 4.83194 31.2938 8.1468 32.7106 12.1892Z" fill="white"/>
<path d="M25.0783 19.6695C25.4589 19.4492 25.7749 19.1328 25.9946 18.7519C26.2143 18.371 26.33 17.939 26.33 17.4992C26.33 17.0595 26.2143 16.6275 25.9946 16.2466C25.7749 15.8656 25.4589 15.5492 25.0783 15.329L23.9744 14.6934L22.1934 21.3415L25.0783 19.6695Z" fill="white"/>
<path d="M33.6102 17.503C33.6102 17.6397 33.6102 17.7748 33.5994 17.9099L34.995 17.2036C34.9693 15.5906 34.7202 13.9888 34.255 12.444L32.7104 12.1953C33.3065 13.9014 33.6106 15.6958 33.6102 17.503Z" fill="white"/>
<path d="M5.40575 28.1384L4.5874 29.3114C5.14906 29.9241 5.75291 30.4966 6.39452 31.0249L7.80858 30.3693C6.93466 29.7084 6.12964 28.961 5.40575 28.1384Z" fill="white"/>
<path d="M11.3291 19.6526V23.2714C11.3289 23.7112 11.4445 24.1432 11.6642 24.5241C11.884 24.905 12.2002 25.2213 12.581 25.4412C12.9619 25.6611 13.3939 25.7769 13.8336 25.7768C14.2734 25.7768 14.7054 25.6609 15.0861 25.4409L19.9332 22.6435L13.431 16.6356L11.3291 19.6526Z" fill="white"/>
<path d="M17.5028 33.6105C14.0044 33.6165 10.6 32.4783 7.80859 30.3694L6.39453 31.025C9.52184 33.6031 13.4498 35.0109 17.5028 35.0062C17.8959 35.0062 18.2859 34.9908 18.6728 34.9663L19.0367 33.5414C18.5285 33.5829 18.0172 33.6105 17.5028 33.6105Z" fill="white"/>
<path d="M19.0382 33.5353L18.6743 34.9601C22.5103 34.7096 26.156 33.1982 29.0441 30.6611L27.9847 29.7399C25.4669 31.9 22.3412 33.226 19.0382 33.5353Z" fill="white"/>
<path d="M34.995 17.1959L33.5994 17.9022C33.545 20.1568 33.0165 22.3747 32.0483 24.4116C31.0801 26.4484 29.694 28.2587 27.98 29.7244L29.0394 30.6457C30.9135 29.0071 32.4154 26.9866 33.4445 24.7198C34.4735 22.4531 35.0059 19.9924 35.0058 17.503C35.0058 17.4001 34.9966 17.3003 34.995 17.1959Z" fill="white"/>
</g>
<defs>
<clipPath id="clip0_10_80">
<rect width="35" height="35" fill="white"/>
</clipPath>
</defs>
</svg>
